<svg width="103" height="8" viewBox="0 0 103 8" fill="none" xmlns="http://www.w3.org/2000/svg">
<path d="M1.7683 6.20861C1.35372 6.20861 0.990522 6.10351 0.678321 5.89368C0.36612 5.68385 0.14008 5.39842 0 5.03796L0.508744 4.79571C0.632413 5.05946 0.804733 5.26928 1.0255 5.42537C1.25154 5.58147 1.49908 5.65963 1.7683 5.65963C2.02658 5.65963 2.24461 5.59769 2.4222 5.47382C2.59979 5.34468 2.68868 5.17785 2.68868 4.9733C2.68868 4.82267 2.64551 4.70408 2.55935 4.61812C2.47339 4.52649 2.37374 4.45655 2.26062 4.4081C2.1477 4.35965 2.04806 4.32468 1.9619 4.30319L1.34023 4.12559C0.94207 4.01247 0.654103 3.85383 0.476512 3.64928C0.298725 3.44473 0.210025 3.20795 0.210025 2.93873C0.210025 2.68573 0.274498 2.46515 0.403833 2.27662C0.532972 2.08828 0.707823 1.94294 0.928591 1.84076C1.14916 1.73839 1.39416 1.68739 1.66318 1.68739C2.02931 1.68739 2.36026 1.78429 2.65625 1.9779C2.95771 2.16643 3.17027 2.43018 3.29413 2.76914L2.77738 3.01141C2.66973 2.76915 2.51363 2.58082 2.30908 2.44621C2.11 2.30632 1.88668 2.23638 1.63895 2.23638C1.39689 2.23638 1.20309 2.29831 1.05773 2.42198C0.912377 2.54584 0.839706 2.70194 0.839706 2.89027C0.839706 3.03562 0.877409 3.15129 0.952821 3.23745C1.02804 3.32361 1.1142 3.38808 1.2111 3.43125C1.31348 3.47424 1.40217 3.50666 1.47758 3.52815L2.19616 3.73798C2.54606 3.84036 2.81781 3.99899 3.01162 4.21429C3.2107 4.42959 3.31035 4.68259 3.31035 4.9733C3.31035 5.21009 3.24295 5.42264 3.10853 5.61117C2.9792 5.7995 2.79887 5.94759 2.56756 6.05524C2.33604 6.15742 2.06956 6.20861 1.7683 6.20861ZM4.37433 6.1117V1.7843H4.97978V2.60777L4.88287 2.48664C5.00127 2.23364 5.17633 2.03711 5.40764 1.89722C5.64463 1.75734 5.90291 1.68739 6.18287 1.68739C6.51657 1.68739 6.81802 1.78155 7.08704 1.96989C7.35626 2.15823 7.54733 2.40323 7.66025 2.70468L7.49067 2.71268C7.59832 2.37899 7.78412 2.126 8.04787 1.95368C8.31689 1.77609 8.61288 1.68739 8.93583 1.68739C9.22654 1.68739 9.49302 1.75734 9.73528 1.89722C9.98281 2.03711 10.1794 2.2309 10.3245 2.47863C10.4753 2.72069 10.5506 2.99519 10.5506 3.30211V6.1117H9.9451V3.53616C9.9451 3.27242 9.89666 3.04911 9.79976 2.86605C9.70832 2.68299 9.58172 2.54311 9.42034 2.44621C9.25877 2.34403 9.07317 2.29284 8.86334 2.29284C8.65879 2.29284 8.473 2.34403 8.30615 2.44621C8.1393 2.54311 8.00742 2.68573 7.91052 2.87407C7.81362 3.05713 7.76517 3.27789 7.76517 3.53616V6.1117H7.15972V3.53616C7.15972 3.27242 7.11127 3.04911 7.01436 2.86605C6.92293 2.68299 6.79633 2.54311 6.63495 2.44621C6.47338 2.34403 6.28778 2.29284 6.07776 2.29284C5.86793 2.29284 5.67959 2.34403 5.51275 2.44621C5.35117 2.54311 5.22205 2.68573 5.12514 2.87407C5.02824 3.05713 4.97978 3.27789 4.97978 3.53616V6.1117H4.37433ZM12.9583 6.20861C12.6838 6.20861 12.4388 6.15742 12.2235 6.05524C12.0082 5.94759 11.8386 5.80224 11.715 5.61918C11.5911 5.43612 11.5292 5.2263 11.5292 4.98952C11.5292 4.76347 11.5776 4.55891 11.6745 4.37585C11.7714 4.18752 11.9221 4.02869 12.1266 3.89955C12.3312 3.77041 12.5922 3.67879 12.9098 3.62506L14.6053 3.34236V3.89134L13.0552 4.14982C12.743 4.20354 12.517 4.30318 12.3769 4.44853C12.2425 4.59389 12.1751 4.76601 12.1751 4.96529C12.1751 5.1589 12.2505 5.3232 12.4011 5.45762C12.5572 5.59223 12.7565 5.65963 12.9985 5.65963C13.2947 5.65963 13.553 5.59769 13.7738 5.47382C13.9943 5.34468 14.1667 5.17238 14.2903 4.95708C14.4142 4.74179 14.4761 4.50226 14.4761 4.23851V3.14054C14.4761 2.88226 14.3819 2.67225 14.1934 2.51087C14.0051 2.3493 13.7603 2.26862 13.4588 2.26862C13.1951 2.26862 12.9636 2.33582 12.7645 2.47043C12.5654 2.59957 12.4173 2.76915 12.3204 2.97917L11.7714 2.68045C11.8521 2.49739 11.9787 2.33054 12.1508 2.17991C12.3284 2.02909 12.5304 1.9107 12.7565 1.82454C12.9825 1.73311 13.2166 1.68739 13.4588 1.68739C13.7763 1.68739 14.0563 1.74932 14.2985 1.87299C14.5461 1.99686 14.7371 2.16898 14.8718 2.38975C15.0116 2.60504 15.0816 2.8553 15.0816 3.14054V6.1117H14.4761V5.24779L14.5648 5.33668C14.4896 5.49806 14.3712 5.64614 14.2096 5.78055C14.0535 5.90989 13.8679 6.0148 13.6526 6.09549C13.4426 6.1709 13.2113 6.20861 12.9583 6.20861ZM16.3271 6.1117V1.7843H16.9327V2.49466L16.8518 2.38975C16.9542 2.1852 17.1076 2.02381 17.3121 1.90522C17.5219 1.78683 17.7749 1.72764 18.0709 1.72764H18.3456V2.33328H17.966C17.6538 2.33328 17.4035 2.43019 17.2152 2.6238C17.0269 2.8176 16.9327 3.0921 16.9327 3.44747V6.1117H16.3271ZM20.7102 6.16015C20.3228 6.16015 20.024 6.04704 19.814 5.821C19.6042 5.59496 19.4993 5.27202 19.4993 4.85217V2.38975H18.6998V1.7843H18.9016C19.0847 1.7843 19.23 1.7251 19.3377 1.60651C19.4453 1.48284 19.4993 1.32948 19.4993 1.14642V0.783036H20.1047V1.7843H21.0573V2.38975H20.1047V4.85217C20.1047 4.99753 20.1262 5.12665 20.1692 5.23977C20.2124 5.34742 20.285 5.43358 20.3872 5.49805C20.4949 5.56272 20.6375 5.59496 20.8151 5.59496C20.8583 5.59496 20.9095 5.59222 20.9687 5.58695C21.0278 5.58148 21.0788 5.5762 21.122 5.57073V6.1117C21.0574 6.12772 20.9847 6.13867 20.904 6.14395C20.8233 6.15469 20.7586 6.16015 20.7102 6.16015ZM24.0012 6.1117V2.38975H23.1372V1.7843H24.0012V1.39669C24.0012 1.09523 24.0684 0.842229 24.203 0.637678C24.3376 0.427852 24.5152 0.26902 24.736 0.161372C24.9565 0.0537241 25.1933 0 25.4463 0C25.5003 0 25.5622 0.00526913 25.6321 0.0160144C25.7021 0.0214847 25.7585 0.0294994 25.8017 0.0402447V0.58923C25.764 0.578484 25.7128 0.573203 25.6482 0.573203C25.5837 0.567733 25.538 0.564999 25.511 0.564999C25.2525 0.564999 25.0372 0.626929 24.8651 0.750793C24.6928 0.874656 24.6066 1.08996 24.6066 1.39669V1.7843H25.6644V2.38975H24.6066V6.1117H24.0012ZM28.5088 6.20861C28.0996 6.20861 27.7282 6.1117 27.3946 5.9179C27.0609 5.71882 26.7944 5.44961 26.5953 5.11064C26.4015 4.76601 26.3046 4.37585 26.3046 3.93979C26.3046 3.5092 26.4015 3.12452 26.5953 2.78536C26.7891 2.4462 27.0501 2.17991 27.3785 1.98611C27.7122 1.78683 28.0889 1.68739 28.5088 1.68739C28.9286 1.68739 29.3027 1.78429 29.631 1.9779C29.9646 2.17171 30.2257 2.4382 30.4142 2.77736C30.608 3.11632 30.7047 3.50392 30.7047 3.93979C30.7047 4.38113 30.6053 4.77421 30.406 5.11864C30.2069 5.45761 29.9404 5.72409 29.6067 5.9179C29.2785 6.1117 28.9124 6.20861 28.5088 6.20861ZM28.5088 5.60296C28.7995 5.60296 29.0605 5.53029 29.292 5.38513C29.5288 5.23978 29.7144 5.0405 29.849 4.78749C29.9889 4.53469 30.0588 4.25199 30.0588 3.93979C30.0588 3.62759 29.9889 3.34783 29.849 3.10029C29.7144 2.85257 29.5288 2.65623 29.292 2.51087C29.0605 2.36552 28.7995 2.29284 28.5088 2.29284C28.218 2.29284 27.9543 2.36552 27.7175 2.51087C27.4862 2.65623 27.3004 2.85257 27.1605 3.10029C27.0204 3.34783 26.9505 3.62759 26.9505 3.93979C26.9505 4.25199 27.0204 4.53469 27.1605 4.78749C27.3004 5.0405 27.4862 5.23978 27.7175 5.38513C27.9543 5.53029 28.218 5.60296 28.5088 5.60296ZM33.7992 6.20861C33.3901 6.20861 33.0187 6.1117 32.685 5.9179C32.3513 5.71882 32.085 5.44961 31.8857 5.11064C31.6919 4.76601 31.5952 4.37585 31.5952 3.93979C31.5952 3.5092 31.6919 3.12452 31.8857 2.78536C32.0795 2.4462 32.3405 2.17991 32.669 1.98611C33.0026 1.78683 33.3793 1.68739 33.7992 1.68739C34.219 1.68739 34.5932 1.78429 34.9214 1.9779C35.2553 2.17171 35.5163 2.4382 35.7046 2.77736C35.8984 3.11632 35.9953 3.50392 35.9953 3.93979C35.9953 4.38113 35.8957 4.77421 35.6966 5.11864C35.4973 5.45761 35.231 5.72409 34.8972 5.9179C34.5689 6.1117 34.2028 6.20861 33.7992 6.20861ZM33.7992 5.60296C34.0899 5.60296 34.3509 5.53029 34.5824 5.38513C34.8192 5.23978 35.0048 5.0405 35.1394 4.78749C35.2795 4.53469 35.3494 4.25199 35.3494 3.93979C35.3494 3.62759 35.2795 3.34783 35.1394 3.10029C35.0048 2.85257 34.8192 2.65623 34.5824 2.51087C34.3509 2.36552 34.0899 2.29284 33.7992 2.29284C33.5087 2.29284 33.2449 2.36552 33.0079 2.51087C32.7766 2.65623 32.5908 2.85257 32.4509 3.10029C32.311 3.34783 32.2411 3.62759 32.2411 3.93979C32.2411 4.25199 32.311 4.53469 32.4509 4.78749C32.5908 5.0405 32.7766 5.23978 33.0079 5.38513C33.2449 5.53029 33.5087 5.60296 33.7992 5.60296ZM39.0171 6.20861C38.6133 6.20861 38.2501 6.1117 37.9271 5.9179C37.6042 5.71882 37.3484 5.44961 37.1601 5.11064C36.9771 4.76601 36.8856 4.37859 36.8856 3.948C36.8856 3.51193 36.9771 3.12452 37.1601 2.78536C37.3484 2.4462 37.6015 2.17991 37.9189 1.98611C38.2419 1.78683 38.608 1.68739 39.0171 1.68739C39.3883 1.68739 39.7195 1.76808 40.0102 1.92945C40.3007 2.09102 40.5295 2.30906 40.6963 2.58355L40.5994 2.75313V0H41.2051V6.1117H40.5994V5.14288L40.6963 5.23157C40.5457 5.54377 40.3196 5.78603 40.0182 5.95835C39.7222 6.12519 39.3883 6.20861 39.0171 6.20861ZM39.0493 5.60296C39.3401 5.60296 39.6011 5.53029 39.8324 5.38513C40.0694 5.23978 40.255 5.04324 40.3896 4.79571C40.5295 4.54271 40.5994 4.26019 40.5994 3.948C40.5994 3.6358 40.5295 3.35584 40.3896 3.10831C40.255 2.85531 40.0694 2.65623 39.8324 2.51087C39.6011 2.36552 39.3401 2.29284 39.0493 2.29284C38.7641 2.29284 38.5056 2.36552 38.2743 2.51087C38.0428 2.65623 37.8597 2.85257 37.7253 3.10029C37.596 3.34783 37.5315 3.63033 37.5315 3.948C37.5315 4.26019 37.596 4.54271 37.7253 4.79571C37.8597 5.04324 38.0401 5.23978 38.2661 5.38513C38.4976 5.53029 38.7586 5.60296 39.0493 5.60296ZM44.2641 6.1117V2.38975H43.4002V1.7843H44.2641V1.39669C44.2641 1.09523 44.3316 0.842229 44.466 0.637678C44.6006 0.427852 44.7782 0.26902 44.9989 0.161372C45.2195 0.0537241 45.4565 0 45.7093 0C45.7632 0 45.8252 0.00526913 45.8951 0.0160144C45.965 0.0214847 46.0215 0.0294994 46.0647 0.0402447V0.58923C46.027 0.578484 45.9758 0.573203 45.9113 0.573203C45.8466 0.567733 45.8009 0.564999 45.774 0.564999C45.5157 0.564999 45.3004 0.626929 45.1281 0.750793C44.9558 0.874656 44.8698 1.08996 44.8698 1.39669V1.7843H45.9273V2.38975H44.8698V6.1117H44.2641ZM48.7717 6.20861C48.3626 6.20861 47.9912 6.1117 47.6575 5.9179C47.3238 5.71882 47.0575 5.44961 46.8583 5.11064C46.6645 4.76601 46.5676 4.37585 46.5676 3.93979C46.5676 3.5092 46.6645 3.12452 46.8583 2.78536C47.0521 2.4462 47.3131 2.17991 47.6415 1.98611C47.9752 1.78683 48.3519 1.68739 48.7717 1.68739C49.1916 1.68739 49.5657 1.78429 49.8939 1.9779C50.2278 2.17171 50.4888 2.4382 50.6772 2.77736C50.871 3.11632 50.9679 3.50392 50.9679 3.93979C50.9679 4.38113 50.8682 4.77421 50.6692 5.11864C50.4699 5.45761 50.2036 5.72409 49.8697 5.9179C49.5415 6.1117 49.1754 6.20861 48.7717 6.20861ZM48.7717 5.60296C49.0624 5.60296 49.3235 5.53029 49.555 5.38513C49.7918 5.23978 49.9773 5.0405 50.112 4.78749C50.2518 4.53469 50.322 4.25199 50.322 3.93979C50.322 3.62759 50.2518 3.34783 50.112 3.10029C49.9773 2.85257 49.7918 2.65623 49.555 2.51087C49.3235 2.36552 49.0624 2.29284 48.7717 2.29284C48.4812 2.29284 48.2175 2.36552 47.9805 2.51087C47.7492 2.65623 47.5634 2.85257 47.4235 3.10029C47.2836 3.34783 47.2135 3.62759 47.2135 3.93979C47.2135 4.25199 47.2836 4.53469 47.4235 4.78749C47.5634 5.0405 47.7492 5.23978 47.9805 5.38513C48.2175 5.53029 48.4812 5.60296 48.7717 5.60296ZM52.0358 6.1117V1.7843H52.6412V2.49466L52.5605 2.38975C52.6627 2.1852 52.8163 2.02381 53.0208 1.90522C53.2307 1.78683 53.4837 1.72764 53.7796 1.72764H54.0541V2.33328H53.6747C53.3625 2.33328 53.1123 2.43019 52.9239 2.6238C52.7354 2.8176 52.6412 3.0921 52.6412 3.44747V6.1117H52.0358ZM58.3235 6.20861C57.9521 6.20861 57.6159 6.12519 57.3145 5.95835C57.0183 5.78603 56.795 5.54377 56.6444 5.23157L56.7412 5.14288V6.1117H56.1356V0H56.7412V2.75313L56.6444 2.58355C56.8165 2.30906 57.0452 2.09102 57.3305 1.92945C57.6212 1.76808 57.9521 1.68739 58.3235 1.68739C58.7327 1.68739 59.096 1.78683 59.4135 1.98611C59.7365 2.17991 59.9895 2.4462 60.1725 2.78536C60.3609 3.12452 60.455 3.51193 60.455 3.948C60.455 4.37859 60.3609 4.76601 60.1725 5.11064C59.9895 5.44961 59.7365 5.71882 59.4135 5.9179C59.096 6.1117 58.7327 6.20861 58.3235 6.20861ZM58.2913 5.60296C58.582 5.60296 58.8403 5.53029 59.0663 5.38513C59.2979 5.23978 59.4782 5.04324 59.6073 4.79571C59.7419 4.54271 59.8091 4.26019 59.8091 3.948C59.8091 3.63033 59.7419 3.34783 59.6073 3.10029C59.4782 2.85257 59.2979 2.65623 59.0663 2.51087C58.8403 2.36552 58.582 2.29284 58.2913 2.29284C58.0006 2.29284 57.7369 2.36552 57.5001 2.51087C57.2688 2.65623 57.083 2.85531 56.9431 3.10831C56.8085 3.35584 56.7412 3.6358 56.7412 3.948C56.7412 4.26019 56.8085 4.54271 56.9431 4.79571C57.083 5.04324 57.2688 5.23978 57.5001 5.38513C57.7369 5.53029 58.0006 5.60296 58.2913 5.60296ZM63.0546 6.20861C62.7534 6.20861 62.4789 6.13867 62.2311 5.99859C61.9836 5.85324 61.7871 5.65416 61.6419 5.40116C61.5018 5.14288 61.4319 4.84689 61.4319 4.51301V1.7843H62.0375V4.44053C62.0375 4.67185 62.0833 4.87639 62.1747 5.05398C62.2716 5.22629 62.4035 5.36091 62.5703 5.45762C62.7426 5.55452 62.939 5.60296 63.1597 5.60296C63.3803 5.60296 63.5769 5.55452 63.749 5.45762C63.9213 5.35544 64.0559 5.21282 64.1528 5.02976C64.2497 4.84143 64.2981 4.61812 64.2981 4.35965V1.7843H64.9036V6.1117H64.2981V5.27202L64.4353 5.30425C64.3331 5.58421 64.1581 5.80479 63.9105 5.96636C63.663 6.12773 63.3776 6.20861 63.0546 6.20861ZM67.6505 6.20861C67.2361 6.20861 66.8727 6.10351 66.5607 5.89368C66.2485 5.68385 66.0225 5.39842 65.8824 5.03796L66.3912 4.79571C66.5148 5.05946 66.6871 5.26928 66.9079 5.42537C67.1339 5.58147 67.3815 5.65963 67.6505 5.65963C67.909 5.65963 68.127 5.59769 68.3046 5.47382C68.4822 5.34468 68.5711 5.17785 68.5711 4.9733C68.5711 4.82267 68.5279 4.70408 68.4418 4.61812C68.3558 4.52649 68.2561 4.45655 68.143 4.4081C68.0301 4.35965 67.9305 4.32468 67.8443 4.30319L67.2226 4.12559C66.8245 4.01247 66.5365 3.85383 66.3587 3.64928C66.1811 3.44473 66.0924 3.20795 66.0924 2.93873C66.0924 2.68573 66.1569 2.46515 66.2862 2.27662C66.4154 2.08828 66.5902 1.94294 66.811 1.84076C67.0316 1.73839 67.2766 1.68739 67.5456 1.68739C67.9117 1.68739 68.2427 1.78429 68.5387 1.9779C68.8401 2.16643 69.0527 2.43018 69.1765 2.76914L68.6598 3.01141C68.5521 2.76915 68.396 2.58082 68.1915 2.44621C67.9924 2.30632 67.7691 2.23638 67.5214 2.23638C67.2791 2.23638 67.0855 2.29831 66.9401 2.42198C66.7948 2.54584 66.7221 2.70194 66.7221 2.89027C66.7221 3.03562 66.7598 3.15129 66.8352 3.23745C66.9104 3.32361 66.9966 3.38808 67.0935 3.43125C67.1957 3.47424 67.2846 3.50666 67.36 3.52815L68.0786 3.73798C68.4283 3.84036 68.7002 3.99899 68.894 4.21429C69.0931 4.42959 69.1928 4.68259 69.1928 4.9733C69.1928 5.21009 69.1254 5.42264 68.9907 5.61117C68.8616 5.7995 68.6813 5.94759 68.45 6.05524C68.2184 6.15742 67.952 6.20861 67.6505 6.20861ZM70.2667 7.8878C70.1805 7.8878 70.0917 7.8798 70.0002 7.86358C69.9141 7.85284 69.8279 7.83134 69.7419 7.79911V7.2339C69.7957 7.23937 69.8629 7.24739 69.9438 7.25813C70.0299 7.27435 70.1159 7.28235 70.202 7.28235C70.4658 7.28235 70.6676 7.2259 70.8077 7.11278C70.9476 7.00513 71.0847 6.7953 71.2193 6.4831L71.4938 5.83722L71.4776 6.36999L69.645 1.7843H70.2989L71.8005 5.57073H71.6312L73.1248 1.7843H73.7949L71.8168 6.66069C71.7306 6.87051 71.6204 7.0698 71.4858 7.25813C71.3567 7.44647 71.1924 7.59729 70.9933 7.71021C70.7942 7.8286 70.5519 7.8878 70.2667 7.8878ZM75.8783 7.72643V1.7843H76.4838V2.75313L76.3869 2.58355C76.5592 2.30906 76.788 2.09102 77.0732 1.92945C77.3639 1.76808 77.6949 1.68739 78.0663 1.68739C78.4754 1.68739 78.8386 1.78683 79.1562 1.98611C79.4792 2.17991 79.7322 2.4462 79.915 2.78536C80.1036 3.12452 80.1977 3.51193 80.1977 3.948C80.1977 4.37859 80.1036 4.76601 79.915 5.11064C79.7322 5.44961 79.4792 5.71882 79.1562 5.9179C78.8386 6.1117 78.4754 6.20861 78.0663 6.20861C77.6949 6.20861 77.3584 6.12519 77.057 5.95835C76.761 5.78603 76.5377 5.54377 76.3869 5.23157L76.4838 5.14288V7.72643H75.8783ZM78.034 5.60296C78.3245 5.60296 78.583 5.53029 78.8091 5.38513C79.0406 5.23978 79.2207 5.04324 79.35 4.79571C79.4844 4.54271 79.5518 4.26019 79.5518 3.948C79.5518 3.63033 79.4844 3.34783 79.35 3.10029C79.2207 2.85257 79.0406 2.65623 78.8091 2.51087C78.583 2.36552 78.3245 2.29284 78.034 2.29284C77.7433 2.29284 77.4796 2.36552 77.2428 2.51087C77.0113 2.65623 76.8257 2.85531 76.6856 3.10831C76.5512 3.35584 76.4838 3.6358 76.4838 3.948C76.4838 4.26019 76.5512 4.54271 76.6856 4.79571C76.8257 5.04324 77.0113 5.23978 77.2428 5.38513C77.4796 5.53029 77.7433 5.60296 78.034 5.60296ZM83.2334 6.20861C82.8296 6.20861 82.4636 6.1117 82.1352 5.9179C81.8123 5.71882 81.5567 5.44686 81.3684 5.10243C81.1799 4.75799 81.0857 4.36785 81.0857 3.93179C81.0857 3.49573 81.1773 3.11105 81.3602 2.77736C81.5433 2.4382 81.7908 2.17171 82.103 1.9779C82.4207 1.78429 82.7758 1.68739 83.1687 1.68739C83.4809 1.68739 83.7582 1.74659 84.0004 1.86498C84.2479 1.9779 84.4578 2.13401 84.6301 2.33328C84.8024 2.52689 84.9343 2.74766 85.0257 2.99519C85.1171 3.23745 85.1629 3.48772 85.1629 3.74619C85.1629 3.79991 85.1603 3.86185 85.1549 3.93179C85.1496 3.99646 85.1414 4.06366 85.1306 4.1336H81.4733V3.5684H84.7835L84.4928 3.81065C84.5412 3.51467 84.5062 3.25092 84.3878 3.01941C84.2749 2.78262 84.1106 2.59703 83.8953 2.46243C83.68 2.32254 83.438 2.2524 83.1687 2.2524C82.8997 2.2524 82.6494 2.32254 82.4179 2.46243C82.1919 2.60231 82.0143 2.79884 81.8849 3.05185C81.7558 3.29938 81.7046 3.59536 81.7316 3.93979C81.7046 4.28442 81.7585 4.58569 81.8932 4.84416C82.033 5.09716 82.2214 5.2935 82.4582 5.43358C82.7004 5.57346 82.9589 5.64341 83.2334 5.64341C83.5509 5.64341 83.8174 5.568 84.0327 5.41737C84.248 5.26655 84.4228 5.07821 84.5574 4.85217L85.0742 5.12666C84.988 5.32046 84.8561 5.50078 84.6785 5.66763C84.501 5.829 84.2884 5.96088 84.0407 6.06326C83.7984 6.16016 83.5294 6.20861 83.2334 6.20861ZM88.2571 6.20861C87.848 6.20861 87.4766 6.1117 87.1429 5.9179C86.8092 5.71882 86.5428 5.44961 86.3437 5.11064C86.1499 4.76601 86.053 4.37585 86.053 3.93979C86.053 3.5092 86.1499 3.12452 86.3437 2.78536C86.5373 2.4462 86.7985 2.17991 87.1267 1.98611C87.4604 1.78683 87.8373 1.68739 88.2571 1.68739C88.6768 1.68739 89.0509 1.78429 89.3793 1.9779C89.713 2.17171 89.9741 2.4382 90.1624 2.77736C90.3562 3.11632 90.4531 3.50392 90.4531 3.93979C90.4531 4.38113 90.3535 4.77421 90.1544 5.11864C89.9553 5.45761 89.6888 5.72409 89.3551 5.9179C89.0267 6.1117 88.6608 6.20861 88.2571 6.20861ZM88.2571 5.60296C88.5477 5.60296 88.8087 5.53029 89.0402 5.38513C89.277 5.23978 89.4628 5.0405 89.5974 4.78749C89.7373 4.53469 89.8072 4.25199 89.8072 3.93979C89.8072 3.62759 89.7373 3.34783 89.5974 3.10029C89.4628 2.85257 89.277 2.65623 89.0402 2.51087C88.8087 2.36552 88.5477 2.29284 88.2571 2.29284C87.9664 2.29284 87.7027 2.36552 87.4659 2.51087C87.2344 2.65623 87.0488 2.85257 86.9087 3.10029C86.7688 3.34783 86.6989 3.62759 86.6989 3.93979C86.6989 4.25199 86.7688 4.53469 86.9087 4.78749C87.0488 5.0405 87.2344 5.23978 87.4659 5.38513C87.7027 5.53029 87.9664 5.60296 88.2571 5.60296ZM91.521 7.72643V1.7843H92.1266V2.75313L92.0297 2.58355C92.2019 2.30906 92.4306 2.09102 92.7159 1.92945C93.0066 1.76808 93.3375 1.68739 93.7089 1.68739C94.118 1.68739 94.4814 1.78683 94.7997 1.98611C95.122 2.17991 95.3741 2.4462 95.5577 2.78536C95.7453 3.12452 95.841 3.51193 95.841 3.948C95.841 4.37859 95.7453 4.76601 95.5577 5.11064C95.3741 5.44961 95.122 5.71882 94.7997 5.9179C94.4814 6.1117 94.118 6.20861 93.7089 6.20861C93.3375 6.20861 93.0011 6.12519 92.6998 5.95835C92.4037 5.78603 92.1804 5.54377 92.0297 5.23157L92.1266 5.14288V7.72643H91.521ZM93.6767 5.60296C93.9674 5.60296 94.2257 5.53029 94.4517 5.38513C94.6832 5.23978 94.8641 5.04324 94.9931 4.79571C95.1279 4.54271 95.1943 4.26019 95.1943 3.948C95.1943 3.63033 95.1279 3.34783 94.9931 3.10029C94.8641 2.85257 94.6832 2.65623 94.4517 2.51087C94.2257 2.36552 93.9674 2.29284 93.6767 2.29284C93.386 2.29284 93.1222 2.36552 92.8854 2.51087C92.6539 2.65623 92.4683 2.85531 92.3284 3.10831C92.1938 3.35584 92.1266 3.6358 92.1266 3.948C92.1266 4.26019 92.1938 4.54271 92.3284 4.79571C92.4683 5.04324 92.6539 5.23978 92.8854 5.38513C93.1222 5.53029 93.386 5.60296 93.6767 5.60296ZM96.9058 6.1117V0H97.5114V6.1117H96.9058ZM100.721 6.20861C100.317 6.20861 99.9516 6.1117 99.6234 5.9179C99.301 5.71882 99.0451 5.44686 98.8556 5.10243C98.668 4.75799 98.5742 4.36785 98.5742 3.93179C98.5742 3.49573 98.6641 3.11105 98.8477 2.77736C99.0314 2.4382 99.2795 2.17171 99.5901 1.9779C99.9086 1.78429 100.264 1.68739 100.657 1.68739C100.969 1.68739 101.245 1.74659 101.487 1.86498C101.735 1.9779 101.946 2.13401 102.118 2.33328C102.29 2.52689 102.421 2.74766 102.513 2.99519C102.605 3.23745 102.652 3.48772 102.652 3.74619C102.652 3.79991 102.648 3.86185 102.642 3.93179C102.638 3.99646 102.628 4.06366 102.618 4.1336H98.9611V3.5684H102.271L101.981 3.81065C102.028 3.51467 101.993 3.25092 101.876 3.01941C101.763 2.78262 101.599 2.59703 101.384 2.46243C101.169 2.32254 100.926 2.2524 100.657 2.2524C100.387 2.2524 100.137 2.32254 99.9047 2.46243C99.68 2.60231 99.5022 2.79884 99.3733 3.05185C99.2443 3.29938 99.1916 3.59536 99.2189 3.93979C99.1916 4.28442 99.2463 4.58569 99.3811 4.84416C99.5198 5.09716 99.7093 5.2935 99.9457 5.43358C100.188 5.57346 100.446 5.64341 100.721 5.64341C101.038 5.64341 101.305 5.568 101.52 5.41737C101.735 5.26655 101.911 5.07821 102.046 4.85217L102.562 5.12666C102.476 5.32046 102.343 5.50078 102.167 5.66763C101.989 5.829 101.776 5.96088 101.528 6.06326C101.286 6.16016 101.016 6.20861 100.721 6.20861Z" fill="white"/>
</svg>
