<svg width="144" height="34" viewBox="0 0 144 34" fill="none" xmlns="http://www.w3.org/2000/svg">
<path d="M143.106 24.031C143.323 24.031 143.497 24.2058 143.497 24.4217V27.1569C143.497 27.3725 143.323 27.5476 143.106 27.5476H126.813C126.598 27.5476 126.422 27.3725 126.422 27.1569V24.191C126.422 24.0884 126.463 23.9899 126.535 23.9169L138.076 12.1922C138.32 11.9451 138.144 11.5274 137.798 11.5274H127.164C126.949 11.5274 126.774 11.3523 126.774 11.1366V8.40148C126.774 8.1856 126.949 8.01074 127.164 8.01074H142.911C143.128 8.01074 143.302 8.1856 143.302 8.40148V11.3676C143.302 11.4699 143.263 11.5682 143.19 11.6413L131.685 23.3665C131.443 23.6137 131.619 24.031 131.965 24.031H143.106Z" fill="white"/>
<path d="M109.616 7.61865C111.205 7.61865 112.625 7.95723 113.875 8.63457C115.152 9.31172 116.155 10.3407 116.884 11.7214C117.639 13.0759 118.017 14.743 118.017 16.7228V27.1555C118.017 27.3712 117.842 27.5462 117.626 27.5462H114.696C114.48 27.5462 114.305 27.3712 114.305 27.1555V16.801C114.305 15.0817 113.797 13.7141 112.781 12.6982C111.765 11.6823 110.489 11.1744 108.952 11.1744C107.832 11.1744 106.842 11.4479 105.982 11.9949C105.149 12.5158 104.498 13.2322 104.029 14.144C103.586 15.0556 103.364 16.0455 103.364 17.1136V27.1555C103.364 27.3712 103.19 27.5462 102.974 27.5462H100.043C99.8274 27.5462 99.6523 27.3712 99.6523 27.1555V8.40013C99.6523 8.18424 99.8274 8.00939 100.043 8.00939H102.778C102.994 8.00939 103.169 8.18424 103.169 8.40013V9.87028C103.169 10.2546 103.696 10.4286 103.958 10.1475C104.532 9.53111 105.194 9.01358 105.943 8.59549C107.089 7.94414 108.314 7.61865 109.616 7.61865Z" fill="white"/>
<path d="M90.2698 24.0296C90.4857 24.0296 90.6605 24.2045 90.6605 24.4203V27.1555C90.6605 27.3712 90.4857 27.5462 90.2698 27.5462H88.785C87.7691 27.5462 86.9745 27.2727 86.4015 26.7257C86.0697 26.394 85.8291 25.9809 85.6794 25.4865C85.5733 25.1364 85.0595 24.9848 84.8102 25.2524C84.1301 25.9821 83.358 26.5774 82.4941 27.0383C81.3219 27.6373 80.0584 27.937 78.7039 27.937C76.9587 27.937 75.3695 27.5072 73.9369 26.6475C72.5302 25.7617 71.4102 24.5505 70.5765 23.0137C69.7691 21.4767 69.3652 19.7315 69.3652 17.7778C69.3652 15.8241 69.782 14.0787 70.6156 12.5419C71.4492 11.005 72.5824 9.80678 74.015 8.94716C75.4477 8.06135 77.0497 7.61865 78.8211 7.61865C80.3059 7.61865 81.6735 7.98321 82.9239 8.71271C83.9084 9.27518 84.7614 10.0006 85.4825 10.8887C85.7091 11.1679 86.1868 11.0575 86.2391 10.7018L86.5867 8.34308C86.615 8.15142 86.7795 8.00939 86.9733 8.00939H89.7015C89.9394 8.00939 90.1221 8.22019 90.0883 8.4558L88.7498 17.7501C88.7473 17.7684 88.7459 17.7872 88.7459 17.8058V22.9746C88.7459 23.3132 88.8372 23.5736 89.0194 23.7561C89.2017 23.9384 89.4493 24.0296 89.7618 24.0296H90.2698ZM79.2119 24.4985C80.3581 24.4985 81.4 24.2119 82.3378 23.6389C83.2756 23.0657 84.0049 22.2713 84.5259 21.2554C85.047 20.2133 85.3074 19.0542 85.3074 17.7778C85.3074 16.5013 85.047 15.3552 84.5259 14.3393C84.0049 13.2972 83.2756 12.4898 82.3378 11.9168C81.4 11.3435 80.3581 11.0571 79.2119 11.0571C78.0656 11.0571 77.0368 11.3435 76.125 11.9168C75.2132 12.4898 74.497 13.2972 73.976 14.3393C73.4549 15.3552 73.1945 16.5013 73.1945 17.7778C73.1945 19.0542 73.4549 20.2133 73.976 21.2554C74.497 22.2713 75.2132 23.0657 76.125 23.6389C77.0368 24.2119 78.0656 24.4985 79.2119 24.4985Z" fill="white"/>
<path d="M65.202 0.819089C65.411 0.872424 65.5375 1.08518 65.4841 1.29423L57.4198 32.9496C57.3667 33.1586 57.1539 33.285 56.9447 33.2317L54.105 32.5083C53.8958 32.4549 53.7695 32.2422 53.8227 32.0331L61.887 0.377947C61.9403 0.168708 62.1529 0.0424982 62.3621 0.0956384L65.202 0.819089Z" fill="white"/>
<path d="M47.4837 24.0296C47.6996 24.0296 47.8744 24.2045 47.8744 24.4203V27.1555C47.8744 27.3712 47.6996 27.5462 47.4837 27.5462H45.9989C44.9829 27.5462 44.1884 27.2727 43.6154 26.7257C43.2836 26.394 43.0429 25.9809 42.8933 25.4865C42.7872 25.1364 42.2734 24.9848 42.0241 25.2524C41.344 25.9821 40.5719 26.5774 39.708 27.0383C38.5357 27.6373 37.2723 27.937 35.9178 27.937C34.1725 27.937 32.5834 27.5072 31.1508 26.6475C29.7441 25.7617 28.624 24.5505 27.7904 23.0137C26.9829 21.4767 26.5791 19.7315 26.5791 17.7778C26.5791 15.8241 26.9958 14.0787 27.8295 12.5419C28.6631 11.005 29.7963 9.80678 31.2289 8.94716C32.6615 8.06135 34.2636 7.61865 36.035 7.61865C37.5198 7.61865 38.8874 7.98321 40.1378 8.71271C41.1222 9.27518 41.9752 10.0006 42.6963 10.8887C42.923 11.1679 43.4006 11.0575 43.453 10.7018L43.8006 8.34308C43.8289 8.15142 43.9934 8.00939 44.1872 8.00939H46.9153C47.1533 8.00939 47.336 8.22019 47.3022 8.4558L45.9637 17.7501C45.9612 17.7684 45.9598 17.787 45.9598 17.8058V22.9746C45.9598 23.3132 46.051 23.5736 46.2333 23.7561C46.4156 23.9384 46.6631 24.0296 46.9757 24.0296H47.4837ZM36.4257 24.4985C37.572 24.4985 38.6139 24.2119 39.5517 23.6389C40.4894 23.0657 41.2187 22.2713 41.7398 21.2554C42.2608 20.2133 42.5213 19.0542 42.5213 17.7778C42.5213 16.5013 42.2608 15.3552 41.7398 14.3393C41.2187 13.2972 40.4894 12.4898 39.5517 11.9168C38.6139 11.3435 37.572 11.0571 36.4257 11.0571C35.2795 11.0571 34.2507 11.3435 33.3389 11.9168C32.4271 12.4898 31.7109 13.2972 31.1898 14.3393C30.6688 15.3552 30.4083 16.5013 30.4083 17.7778C30.4083 19.0542 30.6688 20.2133 31.1898 21.2554C31.7109 22.2713 32.4271 23.0657 33.3389 23.6389C34.2507 24.2119 35.2795 24.4985 36.4257 24.4985Z" fill="white"/>
<path d="M10.3155 7.61937C12.0348 7.61937 13.5977 8.06207 15.0044 8.94787C16.4111 9.8075 17.5182 11.0057 18.3257 12.5427C19.1331 14.0794 19.537 15.8248 19.537 17.7785C19.537 19.7322 19.1331 21.4774 18.3257 23.0144C17.5182 24.5512 16.4111 25.7625 15.0044 26.6483C13.5977 27.5079 12.0348 27.9377 10.3155 27.9377C9.01299 27.9377 7.78881 27.6511 6.64257 27.0781C5.83198 26.6543 5.10599 26.1198 4.46459 25.4745C4.20221 25.2104 3.71203 25.386 3.71203 25.7584V27.1562C3.71203 27.3719 3.53717 27.547 3.32129 27.547H0.39074C0.174856 27.547 0 27.3719 0 27.1562V0.390737C0 0.174855 0.174856 0 0.39074 0H3.12592C3.3418 0 3.51666 0.174855 3.51666 0.390737V9.99544C3.51666 10.3717 4.01602 10.5452 4.27528 10.2727C4.93914 9.57481 5.68917 9.00297 6.52535 8.55714C7.69757 7.93196 8.96102 7.61937 10.3155 7.61937ZM9.69034 24.4992C10.8366 24.4992 11.8654 24.2126 12.7772 23.6396C13.689 23.0664 14.4052 22.272 14.9263 21.2561C15.4473 20.214 15.7077 19.0549 15.7077 17.7785C15.7077 16.502 15.4473 15.356 14.9263 14.3401C14.4052 13.298 13.689 12.4905 12.7772 11.9175C11.8654 11.3443 10.8366 11.0579 9.69034 11.0579C8.54411 11.0579 7.5022 11.3443 6.56443 11.9175C5.62665 12.4905 4.89733 13.298 4.37628 14.3401C3.85523 15.356 3.5948 16.502 3.5948 17.7785C3.5948 19.0549 3.85523 20.214 4.37628 21.2561C4.89733 22.272 5.62665 23.0664 6.56443 23.6396C7.5022 24.2126 8.54411 24.4992 9.69034 24.4992Z" fill="white"/>
</svg>
