<svg width="28" height="28" viewBox="0 0 28 28" fill="none" xmlns="http://www.w3.org/2000/svg">
<path d="M18.0846 9.97656C15.8616 9.97656 14.0596 11.7786 14.0596 14.0016C14.0596 14.6137 14.5558 15.1099 15.1679 15.1099C15.78 15.1099 16.2762 14.6137 16.2762 14.0016C16.2762 13.0028 17.0859 12.1932 18.0846 12.1932C19.0833 12.1932 19.8929 13.0028 19.8929 14.0016C19.8929 14.6137 20.3891 15.1099 21.0012 15.1099C21.6134 15.1099 22.1096 14.6137 22.1096 14.0016C22.1096 11.7786 20.3075 9.97656 18.0846 9.97656Z" fill="#FACA15"/>
<path d="M12.8342 1.22656C12.2221 1.22656 11.7259 1.72278 11.7259 2.3349V8.75156C11.7259 9.36368 12.2221 9.8599 12.8342 9.8599C13.4464 9.8599 13.9426 9.36368 13.9426 8.75156V2.3349C13.9426 1.72278 13.4464 1.22656 12.8342 1.22656Z" fill="#FACA15"/>
<path d="M9.91758 1.8099C9.30546 1.8099 8.80924 2.30611 8.80924 2.91823V8.75156C8.80924 9.36368 9.30546 9.8599 9.91758 9.8599C10.5297 9.8599 11.0259 9.36368 11.0259 8.75156V2.91823C11.0259 2.30611 10.5297 1.8099 9.91758 1.8099Z" fill="#FACA15"/>
<path d="M7.00091 2.39323C6.3888 2.39323 5.89258 2.88945 5.89258 3.50156V14.0016C5.89258 14.6137 6.3888 15.1099 7.00091 15.1099C7.61303 15.1099 8.10924 14.6137 8.10924 14.0016V3.50156C8.10924 2.88945 7.61303 2.39323 7.00091 2.39323Z" fill="#FACA15"/>
<path d="M24.4298 2.16395C24.3353 1.55918 23.7684 1.14551 23.1636 1.24001L15.5803 2.4249C14.9755 2.5194 14.5619 3.08627 14.6564 3.69105C14.7508 4.29583 15.3177 4.70949 15.9225 4.615L23.5058 3.4301C24.1106 3.33561 24.5243 2.76873 24.4298 2.16395Z" fill="#6B986D"/>
<path d="M8.09644 4.71604C8.00195 4.11126 7.43507 3.6976 6.8303 3.79209L4.49696 4.15667C3.89218 4.25117 3.47852 4.81805 3.57302 5.42282C3.66751 6.0276 4.23439 6.44127 4.83916 6.34677L7.1725 5.98219C7.77728 5.88769 8.19094 5.32081 8.09644 4.71604Z" fill="#6B986D"/>
<path d="M24.4409 6.93259C24.4027 6.32166 23.8765 5.85736 23.2656 5.89555L15.6823 6.3695C15.0713 6.40769 14.607 6.93389 14.6452 7.54482C14.6834 8.15574 15.2096 8.62004 15.8205 8.58186L23.4039 8.1079C24.0148 8.06971 24.4791 7.54351 24.4409 6.93259Z" fill="#6B986D"/>
<path d="M8.10757 7.95342C8.06939 7.3425 7.54318 6.8782 6.93226 6.91638L4.59893 7.06221C3.988 7.1004 3.52371 7.6266 3.56189 8.23752C3.60007 8.84845 4.12628 9.31275 4.7372 9.27456L7.07053 9.12873C7.68146 9.09055 8.14575 8.56434 8.10757 7.95342Z" fill="#6B986D"/>
<path d="M4.36197 13.2421C4.77203 13.1525 5.23794 13.125 5.72968 13.125H22.2696C22.7614 13.125 23.2273 13.1525 23.6373 13.2421C24.0475 13.3318 24.4712 13.4984 24.8056 13.8293C25.5169 14.5333 25.4468 15.5586 25.2074 16.5232C24.7453 18.3853 23.8455 19.561 22.8008 20.5362C22.3669 20.9412 21.9 21.3186 21.4476 21.6842L21.4476 21.6842C20.9551 22.0838 20.2496 22.6662 19.7797 23.1272C19.9475 23.4012 20.2701 24.0591 20.2182 24.4984C20.2185 24.9141 20.1179 25.3039 19.8909 25.6355C19.666 25.9639 19.3627 26.1687 19.0684 26.2952C18.5207 26.5308 17.8848 26.5417 17.4826 26.5417H10.5167C10.1145 26.5417 9.47862 26.5308 8.93089 26.2952C8.6366 26.1687 8.33329 25.9639 8.10841 25.6355C7.88139 25.3039 7.78078 24.9141 7.78111 24.4984C7.80985 24.1994 7.93596 23.5048 8.21048 23.1183C7.74346 22.661 7.04098 22.0813 6.55175 21.6842C6.09939 21.3186 5.63238 20.9412 5.19849 20.5362C4.1538 19.561 3.25406 18.3853 2.79192 16.5232C2.55249 15.5586 2.48242 14.5333 3.19368 13.8293C3.52811 13.4984 3.9518 13.3318 4.36197 13.2421Z" fill="#6B986D"/>
</svg>
