<svg width="28" height="28" viewBox="0 0 28 28" fill="none" xmlns="http://www.w3.org/2000/svg">
<path d="M26.0193 17.0632C26.261 17.6605 25.9728 18.3406 25.3756 18.5824C24.8692 18.7873 24.2578 19.2423 23.5907 19.9109C22.9385 20.5646 22.3021 21.3518 21.7368 22.1263C21.1738 22.8976 20.6953 23.6369 20.3571 24.1843C20.1884 24.4574 19.9235 24.9117 19.8336 25.0659L19.8325 25.0678C19.617 25.4553 19.2004 25.6874 18.7575 25.6663C18.3145 25.6453 17.9217 25.3749 17.744 24.9686C17.2882 23.9269 16.8843 23.5261 16.7021 23.3873C16.6567 23.3527 16.6232 23.3328 16.6031 23.3223C16.0384 23.2408 15.6045 22.7549 15.6045 22.1676C15.6045 21.5233 16.1268 21.001 16.7712 21.001C17.0127 21.001 17.1903 21.0564 17.3087 21.095C17.5477 21.1731 17.8234 21.3082 18.1162 21.5313C18.3506 21.7098 18.5903 21.9403 18.83 22.2358C19.1231 21.7852 19.4686 21.276 19.8521 20.7506C20.4577 19.9209 21.1724 19.0311 21.9389 18.2629C22.6905 17.5096 23.5652 16.7979 24.5001 16.4195C25.0974 16.1778 25.7775 16.466 26.0193 17.0632Z" fill="#FACA15"/>
<path fill-rule="evenodd" clip-rule="evenodd" d="M13.2705 3.68626C12.4892 3.68626 11.736 4.01419 9.5867 5.03239L6.26384 6.60655C5.31803 7.05462 4.72549 7.33848 4.35408 7.58398C4.72549 7.82949 5.31803 8.11335 6.26384 8.56141L7.51723 9.15519L16.4378 4.78849C14.6773 3.96103 13.9857 3.68626 13.2705 3.68626ZM19.0238 6.01278L10.1032 10.3795C11.8637 11.2069 12.5553 11.4817 13.2705 11.4817C14.0518 11.4817 14.805 11.1538 16.9543 10.1356L20.2772 8.56142C21.223 8.11335 21.8155 7.82949 22.1869 7.58398C21.8155 7.33848 21.223 7.05462 20.2772 6.60655L19.0238 6.01278ZM8.82653 2.91809C10.6519 2.05223 11.9026 1.45898 13.2705 1.45898C14.6384 1.45898 15.8891 2.05223 17.7145 2.91809C17.7904 2.9541 17.8673 2.99057 17.9452 3.0275L21.3452 4.6382C22.1908 5.03868 22.9363 5.39179 23.4609 5.73866C23.986 6.08594 24.6455 6.65555 24.6455 7.58398C24.6455 8.51242 23.986 9.08203 23.4609 9.42931C22.9363 9.77617 22.1908 10.1293 21.3452 10.5298L17.9452 12.1405C17.8673 12.1774 17.7904 12.2139 17.7145 12.2499C15.8891 13.1157 14.6384 13.709 13.2705 13.709C11.9026 13.709 10.6519 13.1157 8.82655 12.2499C8.75063 12.2139 8.67373 12.1774 8.59577 12.1405L5.27291 10.5663C5.2471 10.5541 5.22138 10.5419 5.19575 10.5298C4.3502 10.1293 3.60467 9.77617 3.08015 9.42931C2.55499 9.08203 1.89551 8.51242 1.89551 7.58398C1.89551 6.65555 2.55499 6.08594 3.08015 5.73866C3.60467 5.3918 4.3502 5.03869 5.19575 4.63821C5.22138 4.62607 5.2471 4.61389 5.27291 4.60167L8.59577 3.0275C8.67372 2.99057 8.75062 2.9541 8.82653 2.91809Z" fill="#FACA15"/>
<path d="M13.2705 26.5449C13.9928 26.5449 14.6881 26.3616 15.5254 26.0479C15.8427 25.9289 16.0013 25.8697 16.0566 25.7188C16.1118 25.5676 16.0328 25.4261 15.874 25.1436C15.8592 25.1172 15.8448 25.0919 15.8311 25.0684C15.7873 24.9936 15.7654 24.9556 15.7266 24.9199C15.6875 24.8842 15.6335 24.8582 15.5264 24.8076C14.5378 24.3406 13.8545 23.3362 13.8545 22.1699C13.8545 20.5592 15.1598 19.2531 16.7705 19.2529C17.2931 19.2529 17.6824 19.3784 17.8516 19.4336C17.872 19.4403 17.8926 19.447 17.9131 19.4541C18.2052 19.5548 18.3516 19.605 18.46 19.5723C18.5681 19.5394 18.6522 19.4301 18.8193 19.2109C19.3741 18.4835 20.0115 17.7195 20.7002 17.0293C21.5153 16.2123 22.587 15.3082 23.8428 14.7998C23.9041 14.775 23.9664 14.7518 24.0283 14.7314C24.3511 14.6252 24.5126 14.5721 24.5791 14.4805C24.6455 14.3887 24.6455 14.2483 24.6455 13.9678L24.6455 7.58691C24.6455 7.55274 24.6435 7.5185 24.6396 7.48535C24.6213 7.32553 24.6125 7.24521 24.4541 7.1582C24.2955 7.07112 24.1794 7.12799 23.9482 7.24023L20.584 8.87305L17.1758 10.5225C14.9969 11.5768 14.1543 11.9619 13.2705 11.9619C12.3868 11.9618 11.5441 11.5768 9.36523 10.5225L5.95703 8.87305L2.59277 7.24023C2.36176 7.12807 2.24634 7.07129 2.08789 7.1582C1.92939 7.24524 1.91975 7.32546 1.90137 7.48535C1.89756 7.5185 1.89551 7.55274 1.89551 7.58691L1.89551 20.0244C1.89551 21.3316 2.84979 22.201 4.02344 22.9053C5.21157 23.6182 7.20557 24.4607 9.41406 25.3936C11.0695 26.0934 12.1366 26.5448 13.2705 26.5449ZM9.38672 15.5605C9.17047 15.9925 8.64497 16.1672 8.21289 15.9512L5.87988 14.7852C5.44765 14.569 5.27217 14.0426 5.48828 13.6104C5.70449 13.1784 6.23001 13.0037 6.66211 13.2197L8.99609 14.3857C9.42821 14.6019 9.60281 15.1284 9.38672 15.5605Z" fill="#6B986D"/>
</svg>
