<svg width="28" height="28" viewBox="0 0 28 28" fill="none" xmlns="http://www.w3.org/2000/svg">
<path d="M20.838 4.42299C20.8318 4.42245 20.8257 4.42192 20.8195 4.4214C20.4047 4.38638 19.9298 4.39983 19.5626 4.41023C19.4179 4.41433 19.2899 4.41795 19.1889 4.41795C18.3809 4.41795 17.8575 4.18153 17.2572 3.5812L17.216 3.53994C16.6293 2.9532 16.1278 2.45169 15.6732 2.10482C15.1878 1.73445 14.6544 1.45898 13.9997 1.45898C13.345 1.45898 12.8116 1.73445 12.3262 2.10482C11.8715 2.45169 11.3701 2.95319 10.7834 3.53993L10.7421 3.5812C10.1417 4.18163 9.61825 4.41795 8.81043 4.41795C8.7092 4.41795 8.58143 4.41436 8.43715 4.4103C8.06727 4.39989 7.58881 4.38643 7.17018 4.42263C6.55784 4.47559 5.79255 4.64316 5.2117 5.22888C4.6353 5.81013 4.47182 6.57228 4.42045 7.18078C4.38543 7.59559 4.39888 8.0705 4.40928 8.43773C4.41338 8.5824 4.417 8.71039 4.417 8.81138C4.417 9.61921 4.18067 10.1427 3.5802 10.7431L3.53895 10.7844C2.95222 11.3711 2.45071 11.8725 2.10385 12.3271C1.73348 12.8125 1.45802 13.346 1.45801 14.0006C1.45802 14.6553 1.73349 15.1887 2.10386 15.6742C2.45078 16.1289 2.9524 16.6304 3.53928 17.2172L3.58024 17.2582C3.96952 17.6475 4.15314 17.8999 4.25722 18.1382C4.35856 18.3702 4.417 18.6639 4.417 19.1899C4.417 19.2911 4.41341 19.4189 4.40935 19.5632C4.39894 19.933 4.38548 20.4115 4.42168 20.8302C4.47465 21.4425 4.64223 22.2078 5.22797 22.7886C5.80922 23.365 6.57136 23.5285 7.17984 23.5799C7.59465 23.6149 8.06954 23.6014 8.43676 23.591C8.58145 23.5869 8.70942 23.5833 8.81042 23.5833C9.32516 23.5833 9.61448 23.6351 9.84221 23.7291C10.0697 23.823 10.3131 23.991 10.6796 24.3576C10.7578 24.4358 10.8609 24.5463 10.9798 24.6737C11.2481 24.9612 11.5972 25.3354 11.923 25.6202C12.4174 26.0523 13.1265 26.5423 13.9997 26.5423C14.8729 26.5423 15.582 26.0523 16.0764 25.6202C16.4022 25.3354 16.751 24.9616 17.0193 24.674C17.1383 24.5464 17.2414 24.4359 17.3197 24.3576C17.6863 23.991 17.9296 23.823 18.1571 23.7291C18.3849 23.6351 18.6742 23.5833 19.1889 23.5833C19.2899 23.5833 19.4179 23.5869 19.5626 23.591C19.9298 23.6014 20.4047 23.6149 20.8195 23.5799C21.428 23.5285 22.1901 23.365 22.7714 22.7886C23.3571 22.2078 23.5247 21.4425 23.5777 20.8302C23.6139 20.4115 23.6004 19.933 23.59 19.5632C23.5859 19.419 23.5823 19.291 23.5823 19.1899C23.5823 18.6639 23.6408 18.3702 23.7421 18.1381C23.8462 17.8999 24.0298 17.6474 24.4191 17.2582L24.4601 17.2172C25.047 16.6304 25.5486 16.1289 25.8955 15.6742C26.2659 15.1887 26.5413 14.6553 26.5413 14.0006C26.5413 13.3459 26.2659 12.8125 25.8955 12.3271C25.5486 11.8725 25.0472 11.3711 24.4604 10.7844L24.4192 10.7431C24.0299 10.3538 23.8462 10.1014 23.7421 9.86312C23.6408 9.63111 23.5823 9.33735 23.5823 8.81138C23.5823 8.71022 23.5859 8.58257 23.59 8.43841C23.6004 8.06854 23.6139 7.58977 23.5777 7.17116C23.534 6.66603 23.4123 6.05682 23.0423 5.53292C22.78 5.77848 22.5168 6.0393 22.2535 6.3138C20.9493 7.67331 19.7114 9.29437 18.6341 10.8683C17.5591 12.4388 16.6583 13.9412 16.0259 15.0521C15.6874 15.6468 15.3571 16.2466 15.0438 16.855L15.0412 16.8601C14.8373 17.263 14.4186 17.5131 13.9671 17.5005C13.5156 17.4879 13.112 17.2157 12.9309 16.8019C11.9898 14.6508 10.9799 13.8 10.3453 13.4563C9.85731 13.1921 9.52649 13.1863 9.46068 13.1869L9.45371 13.187C8.82992 13.2522 8.26279 12.8106 8.1772 12.1847C8.08989 11.5463 8.53881 10.9577 9.1772 10.8704C9.95866 10.7766 10.7781 11.0372 11.4564 11.4046C12.2812 11.8512 13.1712 12.6157 14.0065 13.883C14.6605 12.7349 15.5923 11.1812 16.7086 9.55031C17.8274 7.91588 19.1458 6.18278 20.5696 4.69853C20.6584 4.60598 20.7479 4.5141 20.838 4.42299Z" fill="#6B986D"/>
<path d="M26.104 3.41443C26.7013 3.17268 26.9895 2.49253 26.7478 1.89527C26.506 1.298 25.8259 1.0098 25.2286 1.25155C23.6692 1.88272 22.1793 3.06601 20.8379 4.42169C21.4433 4.47482 22.196 4.64078 22.7713 5.21139C22.8739 5.31309 22.9636 5.42043 23.0421 5.53162C24.0928 4.54799 25.1292 3.80901 26.104 3.41443Z" fill="#6B986D"/>
</svg>
