<svg width="24" height="24" viewBox="0 0 24 24" fill="none" xmlns="http://www.w3.org/2000/svg">
<rect width="24" height="24" rx="12" fill="#0E1D0E"/>
<path d="M12 3.9375C16.4528 3.9375 20.0625 7.5472 20.0625 12C20.0625 16.4528 16.4528 20.0625 12 20.0625C7.5472 20.0625 3.9375 16.4528 3.9375 12C3.9375 7.5472 7.5472 3.9375 12 3.9375ZM9 14.625C8.68934 14.625 8.4375 14.8768 8.4375 15.1875C8.4375 15.4982 8.68934 15.75 9 15.75L15 15.75C15.3107 15.75 15.5625 15.4982 15.5625 15.1875C15.5625 14.8768 15.3107 14.625 15 14.625L9 14.625ZM12 7.125C11.6893 7.125 11.4375 7.37684 11.4375 7.6875V10.875H11.2041C10.9989 10.875 10.7974 10.8748 10.6416 10.8926C10.5195 10.9065 10.1653 10.9529 10.0029 11.2666C9.84043 11.5805 10.0241 11.8655 10.0889 11.9619C10.1717 12.0853 10.2988 12.2299 10.4277 12.3779L10.4453 12.3994C10.6426 12.626 10.8725 12.8774 11.0996 13.0752C11.2131 13.174 11.3398 13.2721 11.4736 13.3477C11.5994 13.4186 11.7836 13.5 12 13.5C12.2164 13.5 12.4006 13.4186 12.5264 13.3477C12.6602 13.2721 12.7869 13.174 12.9004 13.0752C13.1275 12.8774 13.3574 12.626 13.5547 12.3994L13.5723 12.3779C13.7012 12.2299 13.8283 12.0853 13.9111 11.9619C13.9759 11.8655 14.1596 11.5805 13.9971 11.2666C13.8347 10.9529 13.4805 10.9065 13.3584 10.8926C13.2026 10.8748 13.0011 10.875 12.7959 10.875H12.5625V7.6875C12.5625 7.37684 12.3107 7.125 12 7.125Z" fill="#F3FCF3"/>
</svg>
