<svg width="48" height="48" viewBox="0 0 48 48" fill="none" xmlns="http://www.w3.org/2000/svg">
<path d="M36.104 22.5C37.901 22.4999 39.3994 22.4999 40.589 22.6598C41.8446 22.8286 42.9782 23.2 43.8891 24.1109C44.8 25.0219 45.1714 26.1555 45.3402 27.411C45.5001 28.6006 45.5001 30.099 45.5 31.896V31.896V32.104V32.1041C45.5001 33.901 45.5001 35.3994 45.3402 36.589C45.1714 37.8446 44.8 38.9782 43.8891 39.8891C42.9782 40.8 41.8446 41.1714 40.589 41.3402C39.3994 41.5001 37.901 41.5001 36.1041 41.5H36.104H35.896H35.896C34.099 41.5001 32.6006 41.5001 31.411 41.3402C30.1555 41.1714 29.0219 40.8 28.1109 39.8891C27.2 38.9782 26.8286 37.8446 26.6598 36.589C26.4999 35.3994 26.4999 33.901 26.5 32.104V31.896C26.4999 30.099 26.4999 28.6006 26.6598 27.411C26.8286 26.1555 27.2 25.0219 28.1109 24.1109C29.0219 23.2 30.1555 22.8286 31.411 22.6598C32.6006 22.4999 34.099 22.4999 35.896 22.5H36.104Z" fill="#759870"/>
<path fill-rule="evenodd" clip-rule="evenodd" d="M42.4094 7.90548C42.7381 8.96003 42.1496 10.0813 41.0951 10.41C34.8797 12.3469 30.5 17.8507 30.5 24.2258V32.5005C30.5 33.6051 29.6046 34.5005 28.5 34.5005C27.3954 34.5005 26.5 33.6051 26.5 32.5005V24.2258C26.5 15.9331 32.1831 8.99753 39.9049 6.59111C40.9595 6.26247 42.0808 6.85093 42.4094 7.90548Z" fill="#759870"/>
<path d="M12.104 22.5C13.901 22.4999 15.3994 22.4999 16.589 22.6598C17.8446 22.8286 18.9782 23.2 19.8891 24.1109C20.8 25.0219 21.1714 26.1555 21.3402 27.411C21.5001 28.6006 21.5001 30.099 21.5 31.896V31.896V32.104V32.1041C21.5001 33.901 21.5001 35.3994 21.3402 36.589C21.1714 37.8446 20.8 38.9782 19.8891 39.8891C18.9782 40.8 17.8446 41.1714 16.589 41.3402C15.3994 41.5001 13.901 41.5001 12.1041 41.5H12.104H11.896H11.896C10.099 41.5001 8.6006 41.5001 7.41105 41.3402C6.15546 41.1714 5.02186 40.8 4.11092 39.8891C3.19998 38.9782 2.82864 37.8446 2.65983 36.589C2.49989 35.3994 2.49994 33.901 2.5 32.104V31.896C2.49994 30.099 2.49989 28.6006 2.65983 27.411C2.82864 26.1555 3.19998 25.0219 4.11092 24.1109C5.02186 23.2 6.15546 22.8286 7.41105 22.6598C8.60061 22.4999 10.099 22.4999 11.896 22.5H12.104Z" fill="#759870"/>
<path fill-rule="evenodd" clip-rule="evenodd" d="M18.4094 7.90548C18.7381 8.96003 18.1496 10.0813 17.0951 10.41C10.8797 12.3469 6.5 17.8507 6.5 24.2258V32.5005C6.5 33.6051 5.60457 34.5005 4.5 34.5005C3.39543 34.5005 2.5 33.6051 2.5 32.5005V24.2258C2.5 15.9331 8.18313 8.99753 15.9049 6.59111C16.9595 6.26247 18.0808 6.85093 18.4094 7.90548Z" fill="#759870"/>
</svg>
