<svg width="28" height="28" viewBox="0 0 28 28" fill="none" xmlns="http://www.w3.org/2000/svg">
<path d="M24.5 2.625C24.9832 2.625 25.375 3.01675 25.375 3.5V6.7C25.375 6.86569 25.2407 7 25.075 7H24.5C20.6341 7 17.5001 10.1341 17.5 14C17.5 17.866 20.634 21 24.5 21H25.075C25.2407 21 25.375 21.1343 25.375 21.3V24.5C25.375 24.9832 24.9832 25.375 24.5 25.375C18.2178 25.375 13.125 20.2822 13.125 14C13.125 7.71776 18.2178 2.625 24.5 2.625ZM25.375 18.367C25.375 18.5327 25.2407 18.667 25.075 18.667H24.5C21.9227 18.667 19.833 16.5773 19.833 14C19.8331 11.4227 21.9227 9.33301 24.5 9.33301H25.075C25.2407 9.33301 25.375 9.46732 25.375 9.63301V18.367Z" fill="#6B986D"/>
<path d="M3.79167 2.33398C4.436 2.33398 4.95833 2.85632 4.95833 3.50065V7.58398C4.95833 7.90615 5.2195 8.16732 5.54167 8.16732C5.86383 8.16732 6.125 7.90615 6.125 7.58398L6.125 3.50065C6.125 2.85632 6.64733 2.33398 7.29167 2.33398C7.936 2.33398 8.45833 2.85632 8.45833 3.50065V7.58398C8.45833 7.90615 8.7195 8.16732 9.04167 8.16732C9.36383 8.16732 9.625 7.90615 9.625 7.58398L9.625 3.50065C9.625 2.85632 10.1473 2.33398 10.7917 2.33398C11.436 2.33398 11.9583 2.85632 11.9583 3.50065L11.9583 8.57826C11.9583 10.2424 11.4405 11.6045 10.5543 12.5624C10.0189 13.141 9.37085 13.5472 8.6772 13.777C8.54898 13.8195 8.45833 13.9369 8.45833 14.072L8.45833 24.5007C8.45833 25.145 7.936 25.6673 7.29167 25.6673C6.64734 25.6673 6.125 25.145 6.125 24.5007L6.125 14.072C6.125 13.9369 6.03436 13.8195 5.90614 13.777C5.21248 13.5471 4.56437 13.1409 4.02904 12.5623C3.14279 11.6043 2.625 10.2422 2.625 8.57807V3.50065C2.625 2.85632 3.14733 2.33398 3.79167 2.33398Z" fill="#6B986D"/>
</svg>
