<svg width="12" height="25" viewBox="0 0 12 25" fill="none" xmlns="http://www.w3.org/2000/svg">
<path d="M6.77344 1L6.77344 4.37114e-08L4.77344 -4.37114e-08L4.77344 1L5.77344 1L6.77344 1ZM5.77344 25L11.5469 15L-6.59387e-05 15L5.77344 25ZM4.77344 4C4.77344 4.55228 5.22115 5 5.77344 5C6.32572 5 6.77344 4.55228 6.77344 4L5.77344 4L4.77344 4ZM6.77344 10C6.77344 9.44771 6.32572 9 5.77344 9C5.22115 9 4.77344 9.44771 4.77344 10L5.77344 10L6.77344 10ZM4.77344 16C4.77344 16.5523 5.22115 17 5.77344 17C6.32572 17 6.77344 16.5523 6.77344 16L5.77344 16L4.77344 16ZM6.77344 22C6.77344 21.4477 6.32572 21 5.77344 21C5.22115 21 4.77344 21.4477 4.77344 22L5.77344 22L6.77344 22ZM5.77344 1L4.77344 1L4.77344 4L5.77344 4L6.77344 4L6.77344 1L5.77344 1ZM5.77344 10L4.77344 10L4.77344 16L5.77344 16L6.77344 16L6.77344 10L5.77344 10Z" fill="#F4DE70"/>
</svg>
