<svg width="24" height="24" viewBox="0 0 24 24" fill="none" xmlns="http://www.w3.org/2000/svg">
<rect width="24" height="24" rx="12" fill="#0E1D0E"/>
<path d="M12 3.9375C16.4528 3.9375 20.0625 7.5472 20.0625 12C20.0625 16.4528 16.4528 20.0625 12 20.0625C7.5472 20.0625 3.9375 16.4528 3.9375 12C3.9375 7.5472 7.5472 3.9375 12 3.9375ZM13.4229 9.00488C13.0744 8.98938 12.6838 9.01643 12.3477 9.04785L12.3105 9.05176C12.0972 9.07163 11.8716 9.09228 11.6963 9.13086C11.5689 9.15891 11.0976 9.26381 10.9336 9.74609C10.7699 10.2279 11.0725 10.6154 11.1553 10.7207C11.2685 10.8647 11.4319 11.0277 11.5859 11.1816L11.6719 11.2676L9.21973 13.7197C8.92683 14.0126 8.92683 14.4874 9.21973 14.7803C9.51262 15.0732 9.98738 15.0732 10.2803 14.7803L12.7324 12.3281L12.8184 12.4141C12.9723 12.5681 13.1353 12.7315 13.2793 12.8447C13.3846 12.9275 13.7721 13.2301 14.2539 13.0664C14.7362 12.9024 14.8411 12.4311 14.8691 12.3037C14.9077 12.1284 14.9284 11.9028 14.9482 11.6895L14.9521 11.6523C14.9836 11.3162 15.0106 10.9256 14.9951 10.5771C14.9874 10.4032 14.9683 10.212 14.9219 10.0303C14.8788 9.86168 14.7918 9.61403 14.5889 9.41113C14.386 9.20823 14.1383 9.12122 13.9697 9.07812C13.788 9.03169 13.5968 9.01264 13.4229 9.00488Z" fill="#F3FCF3"/>
</svg>
