<svg width="48" height="48" viewBox="0 0 48 48" fill="none" xmlns="http://www.w3.org/2000/svg">
<rect width="48" height="48" rx="24" fill="white"/>
<path d="M20.6016 15.75C17.9385 15.75 15.75 17.9355 15.75 20.6016V27.3984C15.75 30.0615 17.9355 32.25 20.6016 32.25H27.3984C30.0615 32.25 32.25 30.0645 32.25 27.3984V20.6016C32.25 17.9385 30.0645 15.75 27.3984 15.75H20.6016ZM20.6016 17.25H27.3984C29.2529 17.25 30.75 18.7471 30.75 20.6016V27.3984C30.75 29.2529 29.2529 30.75 27.3984 30.75H20.6016C18.7471 30.75 17.25 29.2529 17.25 27.3984V20.6016C17.25 18.7471 18.7471 17.25 20.6016 17.25ZM28.4297 18.8906C28.0518 18.8906 27.75 19.1924 27.75 19.5703C27.75 19.9482 28.0518 20.25 28.4297 20.25C28.8076 20.25 29.1094 19.9482 29.1094 19.5703C29.1094 19.1924 28.8076 18.8906 28.4297 18.8906ZM24 19.5C21.5244 19.5 19.5 21.5244 19.5 24C19.5 26.4756 21.5244 28.5 24 28.5C26.4756 28.5 28.5 26.4756 28.5 24C28.5 21.5244 26.4756 19.5 24 19.5ZM24 21C25.667 21 27 22.333 27 24C27 25.667 25.667 27 24 27C22.333 27 21 25.667 21 24C21 22.333 22.333 21 24 21Z" fill="#292C31"/>
</svg>
