<svg width="88" height="88" viewBox="0 0 88 88" fill="none" xmlns="http://www.w3.org/2000/svg">
<g clip-path="url(#clip0_10690_16700)">
<path d="M17.3757 20.3086H75.7015C77.353 20.3086 78.6925 21.6134 78.6925 23.2236V59.3702C78.6925 60.9798 77.353 62.2852 75.7015 62.2852H68.2235V68.2174C68.2235 69.211 67.0294 69.7493 66.2525 69.1059L58.0189 62.2852H17.3757C15.7236 62.2852 14.3848 60.9798 14.3848 59.3702V23.2236C14.3848 21.6134 15.7236 20.3086 17.3757 20.3086Z" fill="#313F31"/>
<path d="M88.0007 25.7927C88.0007 35.6708 79.993 43.6784 70.1143 43.6784C60.2361 43.6784 52.2285 35.6708 52.2285 25.7927C52.2285 15.9139 60.2361 7.90625 70.1143 7.90625C79.993 7.90625 88.0007 15.9139 88.0007 25.7927Z" fill="#EB423F"/>
<path d="M77.2687 35.6294H62.9595C61.9719 35.6294 61.1709 34.8284 61.1709 33.8408V32.0522C61.1709 31.0646 61.9719 30.2637 62.9595 30.2637H77.2687C78.2563 30.2637 79.0573 31.064 79.0573 32.0522V33.8408C79.0573 34.8284 78.2563 35.6294 77.2687 35.6294Z" fill="#FFE565"/>
<path d="M70.1133 30.2632H62.959V22.3932C62.959 18.4421 66.1622 15.2383 70.1133 15.2383C74.0651 15.2383 77.2682 18.4421 77.2682 22.3932V30.2632H70.1133Z" fill="#FFE565"/>
<path d="M70.1149 16.5793C69.3743 16.5793 68.7734 15.9784 68.7734 15.2372V13.0914C68.7734 12.3502 69.3743 11.75 70.1149 11.75C70.8561 11.75 71.4563 12.3502 71.4563 13.0914V15.2379C71.4563 15.9784 70.8561 16.5793 70.1149 16.5793Z" fill="#FFE565"/>
<path d="M16.1303 72.823C23.6073 72.823 29.6687 66.7616 29.6687 59.2846C29.6687 51.8075 23.6073 45.7461 16.1303 45.7461C8.65317 45.7461 2.5918 51.8075 2.5918 59.2846C2.5918 66.7616 8.65317 72.823 16.1303 72.823Z" fill="#759870"/>
<path fill-rule="evenodd" clip-rule="evenodd" d="M11.1643 61.3468C10.4604 60.8197 10.3186 59.8213 10.8458 59.1174C11.3729 58.4135 12.3714 58.2718 13.0752 58.7989L15.155 60.3595L20.5487 54.9658C21.1698 54.3447 22.1794 54.3447 22.8005 54.9658C23.4215 55.5869 23.4215 56.5965 22.8005 57.2176L16.4306 63.5875C15.87 64.148 14.983 64.2117 14.3492 63.7356L11.1643 61.3468Z" fill="#ECF0F4"/>
<path d="M21.1543 32.1532C21.1543 31.2186 21.912 30.4609 22.8466 30.4609H34.6928C35.6274 30.4609 36.3851 31.2186 36.3851 32.1532C36.3851 33.0879 35.6274 33.8456 34.6928 33.8456H22.8466C21.912 33.8456 21.1543 33.0879 21.1543 32.1532Z" fill="#EFDF80"/>
<path d="M21.1543 38.9228C21.1543 37.9881 21.912 37.2305 22.8466 37.2305H48.2312C49.1659 37.2305 49.9235 37.9881 49.9235 38.9228C49.9235 39.8574 49.1659 40.6151 48.2312 40.6151H22.8466C21.912 40.6151 21.1543 39.8574 21.1543 38.9228Z" fill="#EFDF80"/>
</g>
<defs>
<clipPath id="clip0_10690_16700">
<rect width="88" height="88" fill="white"/>
</clipPath>
</defs>
</svg>
