<svg width="171" height="134" viewBox="0 0 171 134" fill="none" xmlns="http://www.w3.org/2000/svg">
<rect width="171" height="134" rx="24" fill="white"/>
<path d="M76.9722 32.8158C77.4709 28.704 81.0937 25.5022 85.4997 25.5022C89.9056 25.5022 93.5285 28.704 94.0272 32.8158C94.1007 33.422 94.6653 33.8555 95.2884 33.7839C95.9114 33.7124 96.3569 33.163 96.2834 32.5568C95.725 27.9521 92.091 24.2659 87.4297 23.4571C87.7952 22.9378 88.1247 22.2572 88.1247 21.4732C88.1247 20.6123 87.8331 19.8874 87.3222 19.3753C86.8194 18.8713 86.1542 18.625 85.4997 18.625C84.8451 18.625 84.1799 18.8713 83.6771 19.3753C83.1662 19.8874 82.8747 20.6123 82.8747 21.4732C82.8747 22.2572 83.2041 22.9378 83.5696 23.4571C78.9084 24.2659 75.2744 27.9521 74.7159 32.5568C74.6424 33.163 75.0879 33.7124 75.711 33.7839C76.334 33.8555 76.8987 33.422 76.9722 32.8158Z" fill="#F2415A"/>
<path d="M73.8337 34.958C73.1893 34.958 72.667 35.4803 72.667 36.1247C72.667 36.769 73.1893 37.2913 73.8337 37.2913H74.4631L74.8765 38.9447C75.2335 40.3729 76.5168 41.3749 77.989 41.3749H93.0121C94.4843 41.3749 95.7675 40.3729 96.1246 38.9447L96.5379 37.2913H97.167C97.8113 37.2913 98.3337 36.769 98.3337 36.1247C98.3337 35.4803 97.8113 34.958 97.167 34.958H73.8337Z" fill="#F2415A"/>
<path d="M53.0823 76.752C54.3303 76.752 55.3383 76.408 56.1063 75.72C56.8743 75.016 57.2583 74.088 57.2583 72.936C57.2583 71.784 56.8823 70.912 56.1303 70.32C55.3943 69.728 54.1623 69.416 52.4343 69.384L51.2583 69.36C51.2583 73.36 51.2903 75.752 51.3543 76.536C51.8343 76.68 52.4103 76.752 53.0823 76.752ZM51.2583 68.136H53.1543C55.3303 68.136 56.4183 67.168 56.4183 65.232C56.4183 64.224 56.1463 63.496 55.6023 63.048C55.0743 62.584 54.3463 62.352 53.4183 62.352C52.5063 62.352 51.8023 62.376 51.3063 62.424C51.2743 62.664 51.2583 64.568 51.2583 68.136ZM49.8183 61.248L53.7063 61.2C57.1303 61.2 58.8423 62.32 58.8423 64.56C58.8423 65.456 58.6183 66.224 58.1703 66.864C57.7223 67.488 57.1703 67.976 56.5143 68.328C57.2023 68.456 57.8983 68.8 58.6023 69.36C59.0183 69.664 59.3463 70.112 59.5863 70.704C59.8423 71.296 59.9703 71.984 59.9703 72.768C59.9703 73.968 59.6823 74.968 59.1063 75.768C58.5303 76.568 57.7783 77.152 56.8503 77.52C55.9383 77.872 54.7943 78.048 53.4183 78.048L50.5623 77.928L48.3303 78V77.832C48.6343 77.016 48.7863 75.872 48.7863 74.4V65.04C48.7863 63.44 48.6583 62.216 48.4023 61.368V61.2L49.8183 61.248ZM69.694 66.192C70.19 66.192 70.558 66.248 70.798 66.36C70.798 66.456 70.798 66.552 70.798 66.648C70.798 67.592 70.654 68.448 70.366 69.216C69.646 68.752 68.83 68.52 67.918 68.52C67.422 68.52 66.926 68.608 66.43 68.784V73.92C66.43 75.472 66.662 76.776 67.126 77.832V78H63.766V77.832C64.038 77.032 64.174 75.968 64.174 74.64V70.56C64.174 69.872 64.03 69.2 63.742 68.544C63.47 67.872 63.15 67.424 62.782 67.2L62.758 66.912L65.59 66.168C65.846 66.6 66.054 67.104 66.214 67.68C67.174 66.688 68.334 66.192 69.694 66.192ZM77.1329 78.288C75.4529 78.288 74.1249 77.76 73.1489 76.704C72.1729 75.632 71.6849 74.24 71.6849 72.528C71.6849 70.8 72.2529 69.312 73.3889 68.064C74.5249 66.816 75.9489 66.192 77.6609 66.192C79.3889 66.192 80.7169 66.712 81.6449 67.752C82.5889 68.792 83.0609 70.184 83.0609 71.928C83.0609 73.672 82.4929 75.168 81.3569 76.416C80.2209 77.664 78.8129 78.288 77.1329 78.288ZM80.5169 72.528C80.5169 70.944 80.2689 69.72 79.7729 68.856C79.2769 67.992 78.3969 67.56 77.1329 67.56C76.3169 67.56 75.6769 67.736 75.2129 68.088C74.9249 68.456 74.6849 69.016 74.4929 69.768C74.3169 70.52 74.2289 71.24 74.2289 71.928C74.2289 75.272 75.4129 76.944 77.7809 76.944C78.5169 76.944 79.1169 76.776 79.5809 76.44C79.8849 76.072 80.1169 75.504 80.2769 74.736C80.4369 73.968 80.5169 73.232 80.5169 72.528ZM90.2015 75.456C91.4495 71.872 92.2335 69.432 92.5535 68.136C92.2335 67.384 92.0015 66.952 91.8575 66.84V66.552L94.9535 66.384V66.672C94.9535 67.136 95.3615 68.568 96.1775 70.968L97.7375 75.576C98.7935 72.328 99.4095 70.36 99.5855 69.672C99.9215 68.552 100.089 67.584 100.089 66.768V66.48H102.441V66.768C102.041 67.136 101.657 67.912 101.289 69.096L98.8895 76.944L98.5775 78.216L96.3215 78.264L95.9135 76.896L93.4415 70.488L91.2815 76.944L91.0175 78.216L88.7375 78.264L88.3295 76.896L85.1855 69C84.7375 67.832 84.3295 67.128 83.9615 66.888V66.6L87.4175 66.312V66.6C87.4175 67.16 87.8095 68.56 88.5935 70.8L90.2015 75.456ZM106.274 67.704C105.986 67.992 105.842 68.392 105.842 68.904C105.842 69.4 106.002 69.792 106.322 70.08C106.642 70.352 107.042 70.552 107.522 70.68C108.018 70.808 108.546 70.968 109.106 71.16C109.666 71.352 110.186 71.56 110.666 71.784C111.162 71.992 111.57 72.336 111.89 72.816C112.21 73.296 112.37 73.88 112.37 74.568C112.37 75.784 111.922 76.704 111.026 77.328C110.13 77.952 108.946 78.264 107.474 78.264C106.018 78.264 104.722 77.888 103.586 77.136C103.634 76.32 103.874 75.592 104.306 74.952C105.746 76.264 107.058 76.92 108.242 76.92C108.754 76.92 109.21 76.816 109.61 76.608C109.994 76.272 110.186 75.824 110.186 75.264C110.186 74.688 109.962 74.248 109.514 73.944C109.082 73.624 108.554 73.376 107.93 73.2C107.306 73.024 106.682 72.824 106.058 72.6C105.434 72.376 104.898 72.024 104.45 71.544C104.018 71.064 103.802 70.44 103.802 69.672C103.802 68.552 104.218 67.696 105.05 67.104C105.898 66.496 106.962 66.192 108.242 66.192C109.522 66.192 110.778 66.464 112.01 67.008C111.866 67.712 111.586 68.416 111.17 69.12C110.034 67.984 108.85 67.416 107.618 67.416C107.09 67.416 106.642 67.512 106.274 67.704ZM119.81 78.264C118.13 78.264 116.818 77.744 115.874 76.704C114.93 75.664 114.458 74.296 114.458 72.6C114.458 70.888 114.986 69.392 116.042 68.112C117.098 66.832 118.41 66.192 119.978 66.192C122.842 66.192 124.274 67.96 124.274 71.496L123.386 72.36H117.002C117.002 73.704 117.29 74.712 117.866 75.384C118.442 76.056 119.218 76.392 120.194 76.392C120.578 76.392 121.122 76.28 121.826 76.056C122.53 75.816 123.154 75.536 123.698 75.216L124.298 76.128C123.994 76.432 123.33 76.864 122.306 77.424C121.298 77.984 120.466 78.264 119.81 78.264ZM119.546 67.392C118.874 67.392 118.354 67.544 117.986 67.848C117.682 68.264 117.442 68.792 117.266 69.432C117.09 70.072 117.002 70.632 117.002 71.112L121.922 70.92C121.922 68.568 121.13 67.392 119.546 67.392ZM57.4833 110.264C55.8193 110.264 54.5793 109.704 53.7633 108.584C52.9473 107.448 52.5393 106.024 52.5393 104.312C52.5393 102.6 53.0593 101.152 54.0993 99.968C55.1553 98.784 56.4833 98.192 58.0833 98.192C58.9793 98.192 59.8673 98.344 60.7473 98.648V95.912C60.7473 94.632 60.3793 93.64 59.6433 92.936V92.648L62.9313 92.072L63.0753 92.312C63.0273 92.776 63.0033 93.44 63.0033 94.304V106.184C63.0033 106.904 63.1153 107.592 63.3393 108.248C63.5633 108.888 63.8513 109.328 64.2033 109.568L64.2513 109.808L61.6353 110.432C61.4753 110.032 61.2753 109.376 61.0353 108.464C59.8033 109.664 58.6193 110.264 57.4833 110.264ZM56.3553 107.768C56.8193 108.248 57.4513 108.488 58.2513 108.488C59.0513 108.488 59.8833 108.104 60.7473 107.336V100.568C59.9153 99.96 58.8753 99.656 57.6273 99.656C56.9073 99.656 56.3553 99.8 55.9713 100.088C55.3793 101.032 55.0833 102.336 55.0833 104C55.0833 105.664 55.5073 106.92 56.3553 107.768ZM67.4022 106.664V102.008C67.4022 100.584 67.0022 99.592 66.2022 99.032V98.744L69.5862 98.168L69.7302 98.408C69.6822 98.872 69.6582 99.536 69.6582 100.4V106.064C69.6582 107.664 69.8582 108.92 70.2582 109.832V110H67.0182V109.832C67.2742 109.08 67.4022 108.024 67.4022 106.664ZM69.4182 93.008C69.6422 93.2 69.7542 93.664 69.7542 94.4C69.7542 94.576 69.7462 94.736 69.7302 94.88L69.5382 95.048C68.8982 95.224 68.1382 95.352 67.2582 95.432L67.0422 95.336C66.8022 94.92 66.6822 94.368 66.6822 93.68C66.6822 93.6 66.6822 93.52 66.6822 93.44L66.8742 93.272C67.6422 93.016 68.3782 92.888 69.0822 92.888C69.1622 92.888 69.2742 92.928 69.4182 93.008ZM75.2898 99.704C75.0018 99.992 74.8578 100.392 74.8578 100.904C74.8578 101.4 75.0178 101.792 75.3378 102.08C75.6578 102.352 76.0578 102.552 76.5378 102.68C77.0338 102.808 77.5618 102.968 78.1218 103.16C78.6818 103.352 79.2018 103.56 79.6818 103.784C80.1778 103.992 80.5858 104.336 80.9058 104.816C81.2258 105.296 81.3858 105.88 81.3858 106.568C81.3858 107.784 80.9378 108.704 80.0418 109.328C79.1458 109.952 77.9618 110.264 76.4898 110.264C75.0338 110.264 73.7378 109.888 72.6018 109.136C72.6498 108.32 72.8898 107.592 73.3218 106.952C74.7618 108.264 76.0738 108.92 77.2578 108.92C77.7698 108.92 78.2258 108.816 78.6258 108.608C79.0098 108.272 79.2018 107.824 79.2018 107.264C79.2018 106.688 78.9778 106.248 78.5298 105.944C78.0978 105.624 77.5698 105.376 76.9458 105.2C76.3218 105.024 75.6978 104.824 75.0738 104.6C74.4498 104.376 73.9138 104.024 73.4658 103.544C73.0338 103.064 72.8178 102.44 72.8178 101.672C72.8178 100.552 73.2338 99.696 74.0658 99.104C74.9138 98.496 75.9778 98.192 77.2578 98.192C78.5378 98.192 79.7938 98.464 81.0258 99.008C80.8818 99.712 80.6018 100.416 80.1858 101.12C79.0498 99.984 77.8658 99.416 76.6338 99.416C76.1058 99.416 75.6578 99.512 75.2898 99.704ZM86.906 96.92V100.208C87.514 99.744 87.978 99.4 88.298 99.176C88.634 98.952 89.058 98.736 89.57 98.528C90.098 98.304 90.594 98.192 91.058 98.192C92.242 98.192 93.154 98.56 93.794 99.296C94.434 100.032 94.754 101.088 94.754 102.464V105.92C94.754 107.44 94.994 108.744 95.474 109.832V110H92.09V109.832C92.362 109.032 92.498 107.968 92.498 106.64V102.968C92.498 102.04 92.354 101.344 92.066 100.88C91.794 100.4 91.21 100.16 90.314 100.16C89.434 100.16 88.322 100.568 86.978 101.384V105.92C86.978 107.472 87.21 108.776 87.674 109.832V110H84.314V109.832C84.586 109.032 84.722 107.968 84.722 106.64V95.912C84.722 94.632 84.354 93.64 83.618 92.936V92.648L86.834 92.072L86.978 92.312C86.93 92.776 86.906 94.312 86.906 96.92ZM103.193 110.264C101.513 110.264 100.201 109.744 99.2572 108.704C98.3132 107.664 97.8412 106.296 97.8412 104.6C97.8412 102.888 98.3692 101.392 99.4252 100.112C100.481 98.832 101.793 98.192 103.361 98.192C106.225 98.192 107.657 99.96 107.657 103.496L106.769 104.36H100.385C100.385 105.704 100.673 106.712 101.249 107.384C101.825 108.056 102.601 108.392 103.577 108.392C103.961 108.392 104.505 108.28 105.209 108.056C105.913 107.816 106.537 107.536 107.081 107.216L107.681 108.128C107.377 108.432 106.713 108.864 105.689 109.424C104.681 109.984 103.849 110.264 103.193 110.264ZM102.929 99.392C102.257 99.392 101.737 99.544 101.369 99.848C101.065 100.264 100.825 100.792 100.649 101.432C100.473 102.072 100.385 102.632 100.385 103.112L105.305 102.92C105.305 100.568 104.513 99.392 102.929 99.392ZM112.509 99.704C112.221 99.992 112.077 100.392 112.077 100.904C112.077 101.4 112.237 101.792 112.557 102.08C112.877 102.352 113.277 102.552 113.757 102.68C114.253 102.808 114.781 102.968 115.341 103.16C115.901 103.352 116.421 103.56 116.901 103.784C117.397 103.992 117.805 104.336 118.125 104.816C118.445 105.296 118.605 105.88 118.605 106.568C118.605 107.784 118.157 108.704 117.261 109.328C116.365 109.952 115.181 110.264 113.709 110.264C112.253 110.264 110.957 109.888 109.821 109.136C109.869 108.32 110.109 107.592 110.541 106.952C111.981 108.264 113.293 108.92 114.477 108.92C114.989 108.92 115.445 108.816 115.845 108.608C116.229 108.272 116.421 107.824 116.421 107.264C116.421 106.688 116.197 106.248 115.749 105.944C115.317 105.624 114.789 105.376 114.165 105.2C113.541 105.024 112.917 104.824 112.293 104.6C111.669 104.376 111.133 104.024 110.685 103.544C110.253 103.064 110.037 102.44 110.037 101.672C110.037 100.552 110.453 99.696 111.285 99.104C112.133 98.496 113.197 98.192 114.477 98.192C115.757 98.192 117.013 98.464 118.245 99.008C118.101 99.712 117.821 100.416 117.405 101.12C116.269 99.984 115.085 99.416 113.853 99.416C113.325 99.416 112.877 99.512 112.509 99.704Z" fill="#292C31"/>
</svg>
