<svg width="171" height="134" viewBox="0 0 171 134" fill="none" xmlns="http://www.w3.org/2000/svg">
<rect width="171" height="134" rx="24" fill="white"/>
<path d="M87.073 18.7721C87.7403 19.0708 88.1719 19.7629 88.1719 20.568V27.8685C88.1719 27.966 88.2056 28.0302 88.2291 28.0581L88.2301 28.0593H91.5994C92.4483 28.0593 93.0101 28.6571 93.2358 29.2494C93.463 29.8453 93.4339 30.6093 92.9767 31.2255L85.9784 40.6576C85.4604 41.3557 84.6264 41.5412 83.9264 41.2279C83.2592 40.9293 82.8275 40.2372 82.8275 39.4321V32.1316C82.8275 32.0341 82.7938 31.9698 82.7704 31.942L82.7694 31.9408H79.4001C78.5512 31.9408 77.9894 31.343 77.7637 30.7507C77.5365 30.1548 77.5656 29.3908 78.0228 28.7746L85.021 19.3425C85.5391 18.6443 86.3731 18.4589 87.073 18.7721Z" fill="#F2415A"/>
<path d="M38.0387 61.248C40.9987 61.2 42.5027 61.176 42.5507 61.176C45.3827 61.176 47.4947 61.824 48.8867 63.12C50.2787 64.4 50.9747 66.376 50.9747 69.048C50.9747 70.728 50.7107 72.224 50.1827 73.536C48.9827 76.512 46.4627 78 42.6227 78L38.0627 77.976H36.6467V77.808C36.9027 76.816 37.0307 75.192 37.0307 72.936V66.24C37.0307 63.984 36.9027 62.36 36.6467 61.368V61.2L38.0387 61.248ZM42.5267 76.368C44.4627 76.368 45.8467 76.12 46.6787 75.624C47.7347 74.424 48.2627 72.472 48.2627 69.768C48.2627 67.048 47.7747 65.176 46.7987 64.152C45.8387 63.128 44.2147 62.616 41.9267 62.616C41.8787 62.616 41.0867 62.624 39.5507 62.64C39.5187 63.248 39.5027 65.216 39.5027 68.544V69.984C39.5027 73.664 39.5347 75.744 39.5987 76.224C40.5587 76.32 41.5347 76.368 42.5267 76.368ZM60.0684 73.2C59.4124 72.96 58.6524 72.84 57.7884 72.84C56.9404 72.84 56.3244 72.976 55.9404 73.248C55.7004 73.616 55.5804 74.112 55.5804 74.736C55.5804 75.344 55.7484 75.824 56.0844 76.176C56.4204 76.528 56.8364 76.704 57.3324 76.704C57.8444 76.704 58.3644 76.576 58.8924 76.32C59.4204 76.048 59.8124 75.76 60.0684 75.456V73.2ZM60.4524 76.656C59.4764 77.728 58.3724 78.264 57.1404 78.264C55.9244 78.264 54.9644 78 54.2604 77.472C53.5724 76.944 53.2284 76.096 53.2284 74.928C53.2284 73.744 53.6364 72.896 54.4524 72.384C55.2844 71.872 56.4524 71.616 57.9564 71.616L60.0684 71.688V70.32C60.0684 69.472 59.8604 68.784 59.4444 68.256C59.0284 67.728 58.3964 67.464 57.5484 67.464C56.9244 67.48 55.9244 68.08 54.5484 69.264C54.0844 68.672 53.7564 67.904 53.5644 66.96C55.1484 66.448 56.6044 66.192 57.9324 66.192C59.2604 66.192 60.3244 66.536 61.1244 67.224C61.9244 67.912 62.3244 68.888 62.3244 70.152V74.184C62.3404 74.904 62.4524 75.576 62.6604 76.2C62.8844 76.808 63.1724 77.232 63.5244 77.472L63.5724 77.712L61.0044 78.336C60.7964 77.824 60.6124 77.264 60.4524 76.656ZM66.5702 74.664V70.008C66.5702 68.584 66.1702 67.592 65.3702 67.032V66.744L68.7542 66.168L68.8982 66.408C68.8502 66.872 68.8262 67.536 68.8262 68.4V74.064C68.8262 75.664 69.0262 76.92 69.4262 77.832V78H66.1862V77.832C66.4422 77.08 66.5702 76.024 66.5702 74.664ZM68.5862 61.008C68.8102 61.2 68.9222 61.664 68.9222 62.4C68.9222 62.576 68.9142 62.736 68.8982 62.88L68.7062 63.048C68.0662 63.224 67.3062 63.352 66.4262 63.432L66.2102 63.336C65.9702 62.92 65.8502 62.368 65.8502 61.68C65.8502 61.6 65.8502 61.52 65.8502 61.44L66.0422 61.272C66.8102 61.016 67.5462 60.888 68.2502 60.888C68.3302 60.888 68.4422 60.928 68.5862 61.008ZM75.5858 78H72.4898V77.712C72.7618 76.912 72.8978 75.648 72.8978 73.92V63.912C72.8978 62.632 72.5298 61.64 71.7938 60.936V60.648L75.0818 60.072L75.2258 60.312C75.1778 60.776 75.1538 62.312 75.1538 64.92L75.1778 73.92C75.1778 75.648 75.3138 76.912 75.5858 77.712V78ZM83.0179 75.792C84.5539 71.104 85.3219 68.32 85.3219 67.44C85.3219 67.168 85.2659 66.944 85.1539 66.768V66.48H87.7219V66.768C87.4819 66.976 86.1779 70.64 83.8099 77.76C82.6739 81.088 82.0259 83.072 81.8659 83.712V83.904L78.8899 84.12L78.8659 83.952C80.0339 82.56 81.0579 80.688 81.9379 78.336C81.8419 78.064 80.4579 74.768 77.7859 68.448C77.4659 67.696 77.1219 67.168 76.7539 66.864V66.576L79.9699 66.312V66.6C79.9699 67.016 80.1619 67.824 80.5459 69.024C80.9299 70.208 81.7539 72.464 83.0179 75.792ZM108.693 78H104.757C104.197 77.312 102.125 74.544 98.5412 69.696V72.96C98.5412 73.552 98.5732 74.424 98.6372 75.576C98.7172 76.712 98.8052 77.464 98.9012 77.832V78H95.7092V77.832C95.9492 76.904 96.0692 75.28 96.0692 72.96V66.264C96.0692 63.928 95.9492 62.296 95.7092 61.368V61.2H98.9012V61.368C98.8052 61.736 98.7172 62.496 98.6372 63.648C98.5732 64.8 98.5412 65.672 98.5412 66.264V69.144L102.453 64.08C103.477 62.752 103.989 61.792 103.989 61.2H107.013V61.44C106.341 61.552 105.405 62.392 104.205 63.96L100.485 68.76L103.605 72.792C104.853 74.392 105.869 75.584 106.653 76.368C107.453 77.136 108.133 77.6 108.693 77.76V78ZM115.686 73.2C115.03 72.96 114.27 72.84 113.406 72.84C112.558 72.84 111.942 72.976 111.558 73.248C111.318 73.616 111.198 74.112 111.198 74.736C111.198 75.344 111.366 75.824 111.702 76.176C112.038 76.528 112.454 76.704 112.95 76.704C113.462 76.704 113.982 76.576 114.51 76.32C115.038 76.048 115.43 75.76 115.686 75.456V73.2ZM116.07 76.656C115.094 77.728 113.99 78.264 112.758 78.264C111.542 78.264 110.582 78 109.878 77.472C109.19 76.944 108.846 76.096 108.846 74.928C108.846 73.744 109.254 72.896 110.07 72.384C110.902 71.872 112.07 71.616 113.574 71.616L115.686 71.688V70.32C115.686 69.472 115.478 68.784 115.062 68.256C114.646 67.728 114.014 67.464 113.166 67.464C112.542 67.48 111.542 68.08 110.166 69.264C109.702 68.672 109.374 67.904 109.182 66.96C110.766 66.448 112.222 66.192 113.55 66.192C114.878 66.192 115.942 66.536 116.742 67.224C117.542 67.912 117.942 68.888 117.942 70.152V74.184C117.958 74.904 118.07 75.576 118.278 76.2C118.502 76.808 118.79 77.232 119.142 77.472L119.19 77.712L116.622 78.336C116.414 77.824 116.23 77.264 116.07 76.656ZM124.617 78H121.521V77.712C121.793 76.912 121.929 75.648 121.929 73.92V63.912C121.929 62.632 121.561 61.64 120.825 60.936V60.648L124.113 60.072L124.257 60.312C124.209 60.776 124.185 62.312 124.185 64.92L124.209 73.92C124.209 75.648 124.345 76.912 124.617 77.712V78ZM129.817 67.704C129.529 67.992 129.385 68.392 129.385 68.904C129.385 69.4 129.545 69.792 129.865 70.08C130.185 70.352 130.585 70.552 131.065 70.68C131.561 70.808 132.089 70.968 132.649 71.16C133.209 71.352 133.729 71.56 134.209 71.784C134.705 71.992 135.113 72.336 135.433 72.816C135.753 73.296 135.913 73.88 135.913 74.568C135.913 75.784 135.465 76.704 134.569 77.328C133.673 77.952 132.489 78.264 131.017 78.264C129.561 78.264 128.265 77.888 127.129 77.136C127.177 76.32 127.417 75.592 127.849 74.952C129.289 76.264 130.601 76.92 131.785 76.92C132.297 76.92 132.753 76.816 133.153 76.608C133.537 76.272 133.729 75.824 133.729 75.264C133.729 74.688 133.505 74.248 133.057 73.944C132.625 73.624 132.097 73.376 131.473 73.2C130.849 73.024 130.225 72.824 129.601 72.6C128.977 72.376 128.441 72.024 127.993 71.544C127.561 71.064 127.345 70.44 127.345 69.672C127.345 68.552 127.761 67.696 128.593 67.104C129.441 66.496 130.505 66.192 131.785 66.192C133.065 66.192 134.321 66.464 135.553 67.008C135.409 67.712 135.129 68.416 134.713 69.12C133.577 67.984 132.393 67.416 131.161 67.416C130.633 67.416 130.185 67.512 129.817 67.704ZM65.6269 93.248L69.3949 93.2C73.5229 93.2 75.5869 94.728 75.5869 97.784C75.5869 99.544 74.9789 100.912 73.7629 101.888C72.5629 102.864 71.0189 103.352 69.1309 103.352C68.4749 103.352 67.7869 103.28 67.0669 103.136V106.76C67.0669 108.072 67.2189 109.104 67.5229 109.856V110H64.1389V109.832C64.4429 109.016 64.5949 107.872 64.5949 106.4V97.208C64.5949 95.528 64.4669 94.248 64.2109 93.368V93.2L65.6269 93.248ZM72.8749 98.024C72.8749 95.624 71.7229 94.424 69.4189 94.424C68.2509 94.424 67.4829 94.448 67.1149 94.496C67.0829 94.928 67.0669 96.336 67.0669 98.72V102.008C67.6909 102.184 68.3389 102.272 69.0109 102.272C70.2749 102.272 71.2349 101.904 71.8909 101.168C72.5469 100.416 72.8749 99.368 72.8749 98.024ZM81.492 110H78.396V109.712C78.668 108.912 78.804 107.648 78.804 105.92V95.912C78.804 94.632 78.436 93.64 77.7 92.936V92.648L80.988 92.072L81.132 92.312C81.084 92.776 81.06 94.312 81.06 96.92L81.084 105.92C81.084 107.648 81.22 108.912 81.492 109.712V110ZM90.7481 105.2C90.0921 104.96 89.3321 104.84 88.4681 104.84C87.6201 104.84 87.0041 104.976 86.6201 105.248C86.3801 105.616 86.2601 106.112 86.2601 106.736C86.2601 107.344 86.4281 107.824 86.7641 108.176C87.1001 108.528 87.5161 108.704 88.0121 108.704C88.5241 108.704 89.0441 108.576 89.5721 108.32C90.1001 108.048 90.4921 107.76 90.7481 107.456V105.2ZM91.1321 108.656C90.1561 109.728 89.0521 110.264 87.8201 110.264C86.6041 110.264 85.6441 110 84.9401 109.472C84.2521 108.944 83.9081 108.096 83.9081 106.928C83.9081 105.744 84.3161 104.896 85.1321 104.384C85.9641 103.872 87.1321 103.616 88.6361 103.616L90.7481 103.688V102.32C90.7481 101.472 90.5401 100.784 90.1241 100.256C89.7081 99.728 89.0761 99.464 88.2281 99.464C87.6041 99.48 86.6041 100.08 85.2281 101.264C84.7641 100.672 84.4361 99.904 84.2441 98.96C85.8281 98.448 87.2841 98.192 88.6121 98.192C89.9401 98.192 91.0041 98.536 91.8041 99.224C92.6041 99.912 93.0041 100.888 93.0041 102.152V106.184C93.0201 106.904 93.1321 107.576 93.3401 108.2C93.5641 108.808 93.8521 109.232 94.2041 109.472L94.2521 109.712L91.6841 110.336C91.4761 109.824 91.2921 109.264 91.1321 108.656ZM103.778 98.192C104.93 98.192 105.818 98.56 106.442 99.296C107.082 100.032 107.402 101.088 107.402 102.464V105.92C107.402 107.44 107.642 108.744 108.122 109.832V110H104.738V109.832C105.01 109.032 105.146 107.968 105.146 106.64V102.968C105.146 102.04 105.002 101.344 104.714 100.88C104.442 100.4 103.882 100.16 103.034 100.16C102.186 100.16 101.098 100.568 99.7699 101.384V105.92C99.7699 107.472 100.002 108.776 100.466 109.832V110H97.1059V109.832C97.3779 109.032 97.5139 107.968 97.5139 106.64V102.56C97.5139 101.872 97.3699 101.2 97.0819 100.544C96.8099 99.872 96.4899 99.424 96.1219 99.2L96.0979 98.912L99.2419 98.168L99.3859 98.408C99.5139 99 99.6099 99.6 99.6739 100.208C100.266 99.744 100.722 99.4 101.042 99.176C101.378 98.952 101.802 98.736 102.314 98.528C102.826 98.304 103.314 98.192 103.778 98.192Z" fill="#292C31"/>
</svg>
