<svg width="171" height="134" viewBox="0 0 171 134" fill="none" xmlns="http://www.w3.org/2000/svg">
<rect width="171" height="134" rx="24" fill="white"/>
<path d="M96 18.625C96.4832 18.625 96.875 19.0168 96.875 19.5V22.7C96.875 22.8657 96.7407 23 96.575 23H96C92.1341 23 89.0001 26.1341 89 30C89 33.866 92.134 37 96 37H96.575C96.7407 37 96.875 37.1343 96.875 37.3V40.5C96.875 40.9832 96.4832 41.375 96 41.375C89.7178 41.375 84.625 36.2822 84.625 30C84.625 23.7178 89.7178 18.625 96 18.625ZM96.875 34.367C96.875 34.5327 96.7407 34.667 96.575 34.667H96C93.4227 34.667 91.333 32.5773 91.333 30C91.3331 27.4227 93.4227 25.333 96 25.333H96.575C96.7407 25.333 96.875 25.4673 96.875 25.633V34.367Z" fill="#FACA15"/>
<path d="M75.2917 18.333C75.936 18.333 76.4583 18.8553 76.4583 19.4997V23.583C76.4583 23.9052 76.7195 24.1663 77.0417 24.1663C77.3638 24.1663 77.625 23.9052 77.625 23.583L77.625 19.4997C77.625 18.8553 78.1473 18.333 78.7917 18.333C79.436 18.333 79.9583 18.8553 79.9583 19.4997V23.583C79.9583 23.9052 80.2195 24.1663 80.5417 24.1663C80.8638 24.1663 81.125 23.9052 81.125 23.583L81.125 19.4997C81.125 18.8553 81.6473 18.333 82.2917 18.333C82.936 18.333 83.4583 18.8553 83.4583 19.4997L83.4583 24.5773C83.4583 26.2414 82.9405 27.6035 82.0543 28.5614C81.5189 29.14 80.8709 29.5462 80.1772 29.7761C80.049 29.8186 79.9583 29.936 79.9583 30.071L79.9583 40.4997C79.9583 41.144 79.436 41.6663 78.7917 41.6663C78.1473 41.6663 77.625 41.144 77.625 40.4997L77.625 30.071C77.625 29.9359 77.5344 29.8185 77.4061 29.776C76.7125 29.5461 76.0644 29.1399 75.529 28.5613C74.6428 27.6034 74.125 26.2412 74.125 24.5771V19.4997C74.125 18.8553 74.6473 18.333 75.2917 18.333Z" fill="#FACA15"/>
<path d="M41.2402 61.248L45.0082 61.2C49.1362 61.2 51.2002 62.728 51.2002 65.784C51.2002 67.544 50.5922 68.912 49.3762 69.888C48.1762 70.864 46.6322 71.352 44.7442 71.352C44.0882 71.352 43.4002 71.28 42.6802 71.136V74.76C42.6802 76.072 42.8322 77.104 43.1362 77.856V78H39.7522V77.832C40.0562 77.016 40.2082 75.872 40.2082 74.4V65.208C40.2082 63.528 40.0802 62.248 39.8242 61.368V61.2L41.2402 61.248ZM48.4882 66.024C48.4882 63.624 47.3362 62.424 45.0322 62.424C43.8642 62.424 43.0962 62.448 42.7282 62.496C42.6962 62.928 42.6802 64.336 42.6802 66.72V70.008C43.3042 70.184 43.9522 70.272 44.6242 70.272C45.8882 70.272 46.8482 69.904 47.5042 69.168C48.1602 68.416 48.4882 67.368 48.4882 66.024ZM60.2253 66.192C60.7213 66.192 61.0893 66.248 61.3293 66.36C61.3293 66.456 61.3293 66.552 61.3293 66.648C61.3293 67.592 61.1853 68.448 60.8973 69.216C60.1773 68.752 59.3613 68.52 58.4493 68.52C57.9533 68.52 57.4573 68.608 56.9613 68.784V73.92C56.9613 75.472 57.1933 76.776 57.6573 77.832V78H54.2973V77.832C54.5693 77.032 54.7053 75.968 54.7053 74.64V70.56C54.7053 69.872 54.5613 69.2 54.2733 68.544C54.0013 67.872 53.6813 67.424 53.3133 67.2L53.2893 66.912L56.1213 66.168C56.3773 66.6 56.5853 67.104 56.7453 67.68C57.7053 66.688 58.8653 66.192 60.2253 66.192ZM67.5682 78.264C65.8882 78.264 64.5762 77.744 63.6322 76.704C62.6882 75.664 62.2162 74.296 62.2162 72.6C62.2162 70.888 62.7442 69.392 63.8002 68.112C64.8562 66.832 66.1682 66.192 67.7362 66.192C70.6002 66.192 72.0322 67.96 72.0322 71.496L71.1442 72.36H64.7602C64.7602 73.704 65.0482 74.712 65.6242 75.384C66.2002 76.056 66.9762 76.392 67.9522 76.392C68.3362 76.392 68.8802 76.28 69.5842 76.056C70.2882 75.816 70.9122 75.536 71.4562 75.216L72.0562 76.128C71.7522 76.432 71.0882 76.864 70.0642 77.424C69.0562 77.984 68.2242 78.264 67.5682 78.264ZM67.3042 67.392C66.6322 67.392 66.1122 67.544 65.7442 67.848C65.4402 68.264 65.2002 68.792 65.0242 69.432C64.8482 70.072 64.7602 70.632 64.7602 71.112L69.6802 70.92C69.6802 68.568 68.8882 67.392 67.3042 67.392ZM80.8915 76.728C81.6115 76.728 82.1395 76.632 82.4755 76.44C82.7315 76.136 82.9635 75.528 83.1715 74.616C83.3795 73.704 83.4835 72.824 83.4835 71.976C83.4835 69.304 82.6755 67.968 81.0595 67.968C80.0355 67.968 78.9155 68.392 77.6995 69.24V75.72C78.7075 76.392 79.7715 76.728 80.8915 76.728ZM75.4435 80.4V70.464C75.4435 69.76 75.3315 69.104 75.1075 68.496C74.8835 67.872 74.5875 67.448 74.2195 67.224L74.1955 66.936L77.4835 66.168L77.6275 66.408C77.5955 66.776 77.5795 67.296 77.5795 67.968C78.9075 66.784 80.2275 66.192 81.5395 66.192C82.8675 66.192 83.9475 66.712 84.7795 67.752C85.6275 68.792 86.0515 70.056 86.0515 71.544C86.0515 73.4 85.4995 74.992 84.3955 76.32C83.2915 77.632 82.0355 78.288 80.6275 78.288C79.6995 78.288 78.7235 78.112 77.6995 77.76V79.392C77.7315 81.312 78.0595 82.656 78.6835 83.424V83.544L75.3715 83.904C75.4195 83.264 75.4435 82.096 75.4435 80.4ZM95.0489 73.2C94.3929 72.96 93.6329 72.84 92.7689 72.84C91.9209 72.84 91.3049 72.976 90.9209 73.248C90.6809 73.616 90.5609 74.112 90.5609 74.736C90.5609 75.344 90.7289 75.824 91.0649 76.176C91.4009 76.528 91.8169 76.704 92.3129 76.704C92.8249 76.704 93.3449 76.576 93.8729 76.32C94.4009 76.048 94.7929 75.76 95.0489 75.456V73.2ZM95.4329 76.656C94.4569 77.728 93.3529 78.264 92.1209 78.264C90.9049 78.264 89.9449 78 89.2409 77.472C88.5529 76.944 88.2089 76.096 88.2089 74.928C88.2089 73.744 88.6169 72.896 89.4329 72.384C90.2649 71.872 91.4329 71.616 92.9369 71.616L95.0489 71.688V70.32C95.0489 69.472 94.8409 68.784 94.4249 68.256C94.0089 67.728 93.3769 67.464 92.5289 67.464C91.9049 67.48 90.9049 68.08 89.5289 69.264C89.0649 68.672 88.7369 67.904 88.5449 66.96C90.1289 66.448 91.5849 66.192 92.9129 66.192C94.2409 66.192 95.3049 66.536 96.1049 67.224C96.9049 67.912 97.3049 68.888 97.3049 70.152V74.184C97.3209 74.904 97.4329 75.576 97.6409 76.2C97.8649 76.808 98.1529 77.232 98.5049 77.472L98.5529 77.712L95.9849 78.336C95.7769 77.824 95.5929 77.264 95.4329 76.656ZM107.335 66.192C107.831 66.192 108.199 66.248 108.439 66.36C108.439 66.456 108.439 66.552 108.439 66.648C108.439 67.592 108.295 68.448 108.007 69.216C107.287 68.752 106.471 68.52 105.559 68.52C105.063 68.52 104.567 68.608 104.071 68.784V73.92C104.071 75.472 104.303 76.776 104.767 77.832V78H101.407V77.832C101.679 77.032 101.815 75.968 101.815 74.64V70.56C101.815 69.872 101.671 69.2 101.383 68.544C101.111 67.872 100.791 67.424 100.423 67.2L100.399 66.912L103.231 66.168C103.487 66.6 103.695 67.104 103.855 67.68C104.815 66.688 105.975 66.192 107.335 66.192ZM114.678 78.264C112.998 78.264 111.686 77.744 110.742 76.704C109.798 75.664 109.326 74.296 109.326 72.6C109.326 70.888 109.854 69.392 110.91 68.112C111.966 66.832 113.278 66.192 114.846 66.192C117.71 66.192 119.142 67.96 119.142 71.496L118.254 72.36H111.87C111.87 73.704 112.158 74.712 112.734 75.384C113.31 76.056 114.086 76.392 115.062 76.392C115.446 76.392 115.99 76.28 116.694 76.056C117.398 75.816 118.022 75.536 118.566 75.216L119.166 76.128C118.862 76.432 118.198 76.864 117.174 77.424C116.166 77.984 115.334 78.264 114.678 78.264ZM114.414 67.392C113.742 67.392 113.222 67.544 112.854 67.848C112.55 68.264 112.31 68.792 112.134 69.432C111.958 70.072 111.87 70.632 111.87 71.112L116.79 70.92C116.79 68.568 115.998 67.392 114.414 67.392ZM126.249 78.264C124.585 78.264 123.345 77.704 122.529 76.584C121.713 75.448 121.305 74.024 121.305 72.312C121.305 70.6 121.825 69.152 122.865 67.968C123.921 66.784 125.249 66.192 126.849 66.192C127.745 66.192 128.633 66.344 129.513 66.648V63.912C129.513 62.632 129.145 61.64 128.409 60.936V60.648L131.697 60.072L131.841 60.312C131.793 60.776 131.769 61.44 131.769 62.304V74.184C131.769 74.904 131.881 75.592 132.105 76.248C132.329 76.888 132.617 77.328 132.969 77.568L133.017 77.808L130.401 78.432C130.241 78.032 130.041 77.376 129.801 76.464C128.569 77.664 127.385 78.264 126.249 78.264ZM125.121 75.768C125.585 76.248 126.217 76.488 127.017 76.488C127.817 76.488 128.649 76.104 129.513 75.336V68.568C128.681 67.96 127.641 67.656 126.393 67.656C125.673 67.656 125.121 67.8 124.737 68.088C124.145 69.032 123.849 70.336 123.849 72C123.849 73.664 124.273 74.92 125.121 75.768ZM72.5543 94.832C72.2183 95.264 72.0503 95.792 72.0503 96.416C72.0503 97.024 72.2023 97.528 72.5063 97.928C72.8103 98.328 73.2103 98.664 73.7063 98.936C74.2023 99.192 74.7463 99.448 75.3383 99.704C75.9303 99.944 76.5223 100.216 77.1143 100.52C77.7063 100.808 78.2503 101.152 78.7463 101.552C79.2423 101.936 79.6423 102.456 79.9463 103.112C80.2503 103.752 80.4023 104.496 80.4023 105.344C80.4023 106.96 79.8823 108.184 78.8423 109.016C77.8023 109.848 76.3783 110.264 74.5703 110.264C72.7623 110.264 71.1383 109.752 69.6983 108.728C69.7463 107.672 70.0343 106.752 70.5623 105.968C71.2023 106.736 71.9783 107.368 72.8903 107.864C73.8023 108.36 74.6743 108.608 75.5063 108.608C76.3383 108.608 77.0503 108.424 77.6423 108.056C78.0423 107.576 78.2423 106.944 78.2423 106.16C78.2423 105.376 78.0343 104.736 77.6183 104.24C77.2183 103.744 76.7143 103.36 76.1063 103.088C75.5143 102.8 74.8583 102.488 74.1383 102.152C73.4343 101.8 72.7783 101.448 72.1703 101.096C71.5783 100.744 71.0743 100.24 70.6583 99.584C70.2583 98.928 70.0583 98.16 70.0583 97.28C70.0583 95.808 70.5543 94.712 71.5463 93.992C72.5543 93.272 73.8103 92.912 75.3143 92.912C76.8343 92.912 78.3863 93.28 79.9703 94.016C79.7943 94.96 79.5063 95.856 79.1063 96.704C78.4503 96.048 77.6903 95.512 76.8263 95.096C75.9783 94.664 75.1703 94.448 74.4023 94.448C73.6343 94.448 73.0183 94.576 72.5543 94.832ZM88.2869 110.264C86.6069 110.264 85.2949 109.744 84.3509 108.704C83.4069 107.664 82.9349 106.296 82.9349 104.6C82.9349 102.888 83.4629 101.392 84.5189 100.112C85.5749 98.832 86.8869 98.192 88.4549 98.192C91.3189 98.192 92.7509 99.96 92.7509 103.496L91.8629 104.36H85.4789C85.4789 105.704 85.7669 106.712 86.3429 107.384C86.9189 108.056 87.6949 108.392 88.6709 108.392C89.0549 108.392 89.5989 108.28 90.3029 108.056C91.0069 107.816 91.6309 107.536 92.1749 107.216L92.7749 108.128C92.4709 108.432 91.8069 108.864 90.7829 109.424C89.7749 109.984 88.9429 110.264 88.2869 110.264ZM88.0229 99.392C87.3509 99.392 86.8309 99.544 86.4629 99.848C86.1589 100.264 85.9189 100.792 85.7429 101.432C85.5669 102.072 85.4789 102.632 85.4789 103.112L90.3989 102.92C90.3989 100.568 89.6069 99.392 88.0229 99.392ZM98.5863 107.312C98.5863 108.16 98.8423 108.584 99.3543 108.584C99.7863 108.584 100.514 108.328 101.538 107.816L102.042 108.656C101.53 109.008 100.89 109.368 100.122 109.736C99.3543 110.088 98.6503 110.264 98.0103 110.264C97.3703 110.264 96.9303 110.064 96.6903 109.664C96.4503 109.264 96.3303 108.688 96.3303 107.936V99.848L94.1703 99.968L94.7463 98.408C95.0343 98.44 95.5463 98.472 96.2823 98.504C96.2503 97.704 96.2023 96.984 96.1383 96.344L98.5863 95.72V98.48C99.4503 98.448 100.626 98.352 102.114 98.192L101.442 100.064C100.578 99.936 99.6263 99.856 98.5863 99.824V107.312Z" fill="#292C31"/>
</svg>
