<svg width="141" height="116" viewBox="0 0 141 116" fill="none" xmlns="http://www.w3.org/2000/svg">
<path d="M138.14 111.515L140.06 110.957L138.945 107.116L137.024 107.673L137.582 109.594L138.14 111.515ZM15.1215 0.490821C14.2878 -0.233845 13.0246 -0.145504 12.2999 0.688118L0.490865 14.2729C-0.233796 15.1065 -0.145463 16.3698 0.688168 17.0944C1.5218 17.8191 2.78504 17.7308 3.50971 16.8971L14.0067 4.82178L26.082 15.3187C26.9156 16.0434 28.1789 15.9551 28.9035 15.1214C29.6282 14.2878 29.5399 13.0246 28.7062 12.2999L15.1215 0.490821ZM137.582 109.594L137.024 107.673C135.222 108.197 133.324 108.682 131.345 109.117L131.774 111.071L132.204 113.024C134.268 112.57 136.251 112.063 138.14 111.515L137.582 109.594ZM119.894 112.945L119.698 110.955C115.91 111.328 111.958 111.505 107.901 111.438L107.868 113.438L107.835 115.437C112.05 115.507 116.156 115.323 120.09 114.936L119.894 112.945ZM95.8881 112.531L96.1589 110.549C92.3332 110.026 88.4714 109.262 84.6187 108.221L84.097 110.152L83.5752 112.083C87.6019 113.171 91.6319 113.968 95.6173 114.512L95.8881 112.531ZM72.7388 106.236L73.5205 104.396C69.9853 102.894 66.4954 101.122 63.0869 99.0481L62.0474 100.757L61.0079 102.465C64.5878 104.643 68.2506 106.504 71.9571 108.077L72.7388 106.236ZM52.2698 93.7722L53.5487 92.2346C50.6281 89.8054 47.8005 87.103 45.0934 84.1042L43.6088 85.4443L42.1243 86.7845C44.9593 89.925 47.9243 92.7593 50.9909 95.3099L52.2698 93.7722ZM36.1761 76.0085L37.8242 74.8756C35.6825 71.7598 33.6505 68.4004 31.7472 64.7815L29.9771 65.7125L28.207 66.6434C30.1816 70.3981 32.2947 73.8927 34.5279 77.1415L36.1761 76.0085ZM24.9359 54.7577L26.7925 54.0142C25.387 50.5045 24.0877 46.7948 22.9066 42.8752L20.9916 43.4523L19.0767 44.0293C20.2905 48.0573 21.6283 51.8783 23.0793 55.5013L24.9359 54.7577ZM17.9658 31.7783L19.9191 31.3487C19.0993 27.6217 18.3758 23.7318 17.7564 19.6727L15.7793 19.9745L13.8022 20.2762C14.4342 24.4176 15.1733 28.393 16.0125 32.208L17.9658 31.7783ZM14.3103 8.06375L16.3012 7.87335C16.1129 5.90462 15.9471 3.90061 15.8045 1.86073L13.8094 2.00024L11.8142 2.13975C11.9592 4.21294 12.1278 6.25089 12.3194 8.25413L14.3103 8.06375Z" fill="#2D4030"/>
</svg>
