<svg width="21" height="22" viewBox="0 0 21 22" fill="none" xmlns="http://www.w3.org/2000/svg">
<path d="M12.9207 3.44941C15.098 4.68633 16.8089 5.65834 18.0278 6.54872C19.2551 7.44522 20.1627 8.38227 20.4878 9.61762C20.7263 10.5236 20.7263 11.4766 20.4878 12.3825C20.1627 13.6179 19.2551 14.5549 18.0278 15.4514C16.8089 16.3418 15.098 17.3138 12.9208 18.5507L12.9208 18.5507C10.8176 19.7456 9.04403 20.7532 7.69763 21.3259C6.34039 21.9032 5.10306 22.1958 3.90047 21.855C3.01669 21.6045 2.21255 21.1292 1.56475 20.4756C0.685584 19.5886 0.33268 18.3626 0.165717 16.8872C-2.38364e-05 15.4226 -1.33445e-05 13.5054 0 11.0669V11.0669V10.9333V10.9333C-1.33445e-05 8.49478 -2.38419e-05 6.57753 0.165717 5.11294C0.33268 3.63754 0.685584 2.41157 1.56475 1.52455C2.21255 0.870976 3.01669 0.395632 3.90047 0.145193C5.10306 -0.195585 6.34039 0.0970034 7.69763 0.674283C9.04403 1.24696 10.8175 2.25454 12.9207 3.44941Z" fill="white"/>
</svg>
