<svg width="171" height="134" viewBox="0 0 171 134" fill="none" xmlns="http://www.w3.org/2000/svg">
<rect width="171" height="134" rx="24" fill="white"/>
<path d="M90.2275 42.542C91.2757 42.542 92.1499 42.5415 92.8438 42.4482C93.5761 42.3498 94.2372 42.1329 94.7686 41.6016C95.2998 41.0702 95.5168 40.4091 95.6152 39.6768C95.7085 38.9829 95.708 38.1087 95.708 37.0605V27.6064C95.708 26.5582 95.7085 25.6832 95.6152 24.9893C95.5167 24.257 95.2998 23.5957 94.7686 23.0645C94.2372 22.5332 93.5761 22.3162 92.8438 22.2178C92.1499 22.1245 91.2757 22.125 90.2275 22.125L76.167 22.125C75.6837 22.125 75.292 22.5168 75.292 23V37.0605C75.292 38.1087 75.2915 38.9829 75.3848 39.6768C75.4832 40.4091 75.7002 41.0702 76.2314 41.6016C76.7628 42.1329 77.4239 42.3498 78.1562 42.4482C78.8501 42.5415 79.7243 42.542 80.7725 42.542H90.2275ZM80.833 33.208C80.3499 33.2078 79.958 32.8161 79.958 32.333C79.9582 31.85 80.35 31.4582 80.833 31.458H81.2129C81.561 29.7439 82.9109 28.3939 84.625 28.0459V27.667C84.625 27.1837 85.0168 26.792 85.5 26.792C85.9832 26.792 86.375 27.1837 86.375 27.667V28.0459C88.0891 28.3939 89.439 29.7439 89.7871 31.458H90.167C90.65 31.4582 91.0418 31.85 91.042 32.333C91.042 32.8161 90.6501 33.2078 90.167 33.208H80.833ZM80.833 37.875C80.3499 37.8748 79.958 37.4831 79.958 37C79.958 36.5169 80.3499 36.1252 80.833 36.125H90.167C90.6501 36.1252 91.042 36.5169 91.042 37C91.042 37.4831 90.6501 37.8748 90.167 37.875H80.833Z" fill="#FACA15"/>
<path d="M79.4707 20.6664L90.9933 20.6663C90.9882 20.6011 90.9826 20.5375 90.9764 20.4756C90.9103 19.8158 90.767 19.201 90.3783 18.6923C89.948 18.1293 89.3442 17.7241 88.6601 17.5408C88.0408 17.3749 87.4186 17.4789 86.7865 17.6717C86.1672 17.8605 85.412 18.177 84.4875 18.5643L79.4707 20.6664Z" fill="#FACA15"/>
<path d="M37.9299 76.752C39.1779 76.752 40.1859 76.408 40.9539 75.72C41.7219 75.016 42.1059 74.088 42.1059 72.936C42.1059 71.784 41.7299 70.912 40.9779 70.32C40.2419 69.728 39.0099 69.416 37.2819 69.384L36.1059 69.36C36.1059 73.36 36.1379 75.752 36.2019 76.536C36.6819 76.68 37.2579 76.752 37.9299 76.752ZM36.1059 68.136H38.0019C40.1779 68.136 41.2659 67.168 41.2659 65.232C41.2659 64.224 40.9939 63.496 40.4499 63.048C39.9219 62.584 39.1939 62.352 38.2659 62.352C37.3539 62.352 36.6499 62.376 36.1539 62.424C36.1219 62.664 36.1059 64.568 36.1059 68.136ZM34.6659 61.248L38.5539 61.2C41.9779 61.2 43.6899 62.32 43.6899 64.56C43.6899 65.456 43.4659 66.224 43.0179 66.864C42.5699 67.488 42.0179 67.976 41.3619 68.328C42.0499 68.456 42.7459 68.8 43.4499 69.36C43.8659 69.664 44.1939 70.112 44.4339 70.704C44.6899 71.296 44.8179 71.984 44.8179 72.768C44.8179 73.968 44.5299 74.968 43.9539 75.768C43.3779 76.568 42.6259 77.152 41.6979 77.52C40.7859 77.872 39.6419 78.048 38.2659 78.048L35.4099 77.928L33.1779 78V77.832C33.4819 77.016 33.6339 75.872 33.6339 74.4V65.04C33.6339 63.44 33.5059 62.216 33.2499 61.368V61.2L34.6659 61.248ZM52.0937 78.264C50.7497 78.264 49.8057 77.92 49.2617 77.232C48.7337 76.528 48.4697 75.448 48.4697 73.992V70.56C48.4697 69.04 48.2297 67.736 47.7497 66.648V66.48H51.0857V66.648C50.8457 67.496 50.7257 68.56 50.7257 69.84V73.608C50.7257 74.568 50.8457 75.256 51.0857 75.672C51.3257 76.088 51.9097 76.296 52.8377 76.296C53.7657 76.296 54.8537 75.856 56.1017 74.976V70.56C56.1017 69.008 55.8697 67.704 55.4057 66.648V66.48H58.7177V66.648C58.4777 67.496 58.3577 68.56 58.3577 69.84V73.896C58.3577 74.6 58.4777 75.296 58.7177 75.984C58.9577 76.656 59.2377 77.104 59.5577 77.328L59.5817 77.616L56.7737 78.288C56.5017 77.552 56.3097 76.848 56.1977 76.176C55.4137 76.848 54.7017 77.368 54.0617 77.736C53.4217 78.088 52.7657 78.264 52.0937 78.264ZM63.1952 74.664V70.008C63.1952 68.584 62.7952 67.592 61.9952 67.032V66.744L65.3792 66.168L65.5232 66.408C65.4752 66.872 65.4512 67.536 65.4512 68.4V74.064C65.4512 75.664 65.6512 76.92 66.0512 77.832V78H62.8112V77.832C63.0672 77.08 63.1952 76.024 63.1952 74.664ZM65.2112 61.008C65.4352 61.2 65.5472 61.664 65.5472 62.4C65.5472 62.576 65.5392 62.736 65.5232 62.88L65.3312 63.048C64.6912 63.224 63.9312 63.352 63.0512 63.432L62.8352 63.336C62.5952 62.92 62.4752 62.368 62.4752 61.68C62.4752 61.6 62.4752 61.52 62.4752 61.44L62.6672 61.272C63.4352 61.016 64.1712 60.888 64.8752 60.888C64.9552 60.888 65.0672 60.928 65.2112 61.008ZM72.2108 78H69.1148V77.712C69.3868 76.912 69.5228 75.648 69.5228 73.92V63.912C69.5228 62.632 69.1548 61.64 68.4188 60.936V60.648L71.7068 60.072L71.8508 60.312C71.8028 60.776 71.7788 62.312 71.7788 64.92L71.8028 73.92C71.8028 75.648 71.9388 76.912 72.2108 77.712V78ZM79.6669 78.264C78.0029 78.264 76.7629 77.704 75.9469 76.584C75.1309 75.448 74.7229 74.024 74.7229 72.312C74.7229 70.6 75.2429 69.152 76.2829 67.968C77.3389 66.784 78.6669 66.192 80.2669 66.192C81.1629 66.192 82.0509 66.344 82.9309 66.648V63.912C82.9309 62.632 82.5629 61.64 81.8269 60.936V60.648L85.1149 60.072L85.2589 60.312C85.2109 60.776 85.1869 61.44 85.1869 62.304V74.184C85.1869 74.904 85.2989 75.592 85.5229 76.248C85.7469 76.888 86.0349 77.328 86.3869 77.568L86.4349 77.808L83.8189 78.432C83.6589 78.032 83.4589 77.376 83.2189 76.464C81.9869 77.664 80.8029 78.264 79.6669 78.264ZM78.5389 75.768C79.0029 76.248 79.6349 76.488 80.4349 76.488C81.2349 76.488 82.0669 76.104 82.9309 75.336V68.568C82.0989 67.96 81.0589 67.656 79.8109 67.656C79.0909 67.656 78.5389 67.8 78.1549 68.088C77.5629 69.032 77.2669 70.336 77.2669 72C77.2669 73.664 77.6909 74.92 78.5389 75.768ZM98.7444 75.792C100.28 71.104 101.048 68.32 101.048 67.44C101.048 67.168 100.992 66.944 100.88 66.768V66.48H103.448V66.768C103.208 66.976 101.904 70.64 99.5364 77.76C98.4004 81.088 97.7524 83.072 97.5924 83.712V83.904L94.6164 84.12L94.5924 83.952C95.7604 82.56 96.7844 80.688 97.6644 78.336C97.5684 78.064 96.1844 74.768 93.5124 68.448C93.1924 67.696 92.8484 67.168 92.4804 66.864V66.576L95.6964 66.312V66.6C95.6964 67.016 95.8884 67.824 96.2724 69.024C96.6564 70.208 97.4804 72.464 98.7444 75.792ZM109.957 78.288C108.277 78.288 106.949 77.76 105.973 76.704C104.997 75.632 104.509 74.24 104.509 72.528C104.509 70.8 105.077 69.312 106.213 68.064C107.349 66.816 108.773 66.192 110.485 66.192C112.213 66.192 113.541 66.712 114.469 67.752C115.413 68.792 115.885 70.184 115.885 71.928C115.885 73.672 115.317 75.168 114.181 76.416C113.045 77.664 111.637 78.288 109.957 78.288ZM113.341 72.528C113.341 70.944 113.093 69.72 112.597 68.856C112.101 67.992 111.221 67.56 109.957 67.56C109.141 67.56 108.501 67.736 108.037 68.088C107.749 68.456 107.509 69.016 107.317 69.768C107.141 70.52 107.053 71.24 107.053 71.928C107.053 75.272 108.237 76.944 110.605 76.944C111.341 76.944 111.941 76.776 112.405 76.44C112.709 76.072 112.941 75.504 113.101 74.736C113.261 73.968 113.341 73.232 113.341 72.528ZM122.594 78.264C121.25 78.264 120.306 77.92 119.762 77.232C119.234 76.528 118.97 75.448 118.97 73.992V70.56C118.97 69.04 118.73 67.736 118.25 66.648V66.48H121.586V66.648C121.346 67.496 121.226 68.56 121.226 69.84V73.608C121.226 74.568 121.346 75.256 121.586 75.672C121.826 76.088 122.41 76.296 123.338 76.296C124.266 76.296 125.354 75.856 126.602 74.976V70.56C126.602 69.008 126.37 67.704 125.906 66.648V66.48H129.218V66.648C128.978 67.496 128.858 68.56 128.858 69.84V73.896C128.858 74.6 128.978 75.296 129.218 75.984C129.458 76.656 129.738 77.104 130.058 77.328L130.082 77.616L127.274 78.288C127.002 77.552 126.81 76.848 126.698 76.176C125.914 76.848 125.202 77.368 124.562 77.736C123.922 78.088 123.266 78.264 122.594 78.264ZM139.479 66.192C139.975 66.192 140.343 66.248 140.583 66.36C140.583 66.456 140.583 66.552 140.583 66.648C140.583 67.592 140.439 68.448 140.151 69.216C139.431 68.752 138.615 68.52 137.703 68.52C137.207 68.52 136.711 68.608 136.215 68.784V73.92C136.215 75.472 136.447 76.776 136.911 77.832V78H133.551V77.832C133.823 77.032 133.959 75.968 133.959 74.64V70.56C133.959 69.872 133.815 69.2 133.527 68.544C133.255 67.872 132.935 67.424 132.567 67.2L132.543 66.912L135.375 66.168C135.631 66.6 135.839 67.104 135.999 67.68C136.959 66.688 138.119 66.192 139.479 66.192ZM66.4057 102.296V106.64C66.4057 107.92 66.5257 108.984 66.7657 109.832V110H63.7897V109.832C64.0297 108.984 64.1497 107.92 64.1497 106.64V102.8C64.1497 101.888 64.0297 101.224 63.7897 100.808C63.5497 100.376 63.0697 100.16 62.3497 100.16C61.6297 100.16 60.6617 100.568 59.4457 101.384V105.92C59.4457 107.472 59.6777 108.776 60.1417 109.832V110H56.7817V109.832C57.0537 109.032 57.1897 107.968 57.1897 106.64V102.56C57.1897 101.872 57.0457 101.2 56.7577 100.544C56.4857 99.872 56.1657 99.424 55.7977 99.2L55.7737 98.912L58.9177 98.168L59.0617 98.408C59.1897 99 59.2857 99.6 59.3497 100.208C59.9257 99.712 60.3337 99.368 60.5737 99.176C60.8297 98.968 61.1817 98.752 61.6297 98.528C62.0937 98.304 62.5257 98.192 62.9257 98.192C64.5737 98.192 65.6377 98.904 66.1177 100.328C67.7657 98.904 69.0537 98.192 69.9817 98.192C71.1017 98.192 71.9737 98.56 72.5977 99.296C73.2217 100.032 73.5337 101.088 73.5337 102.464V105.92C73.5337 107.44 73.7737 108.744 74.2537 109.832V110H70.8697V109.832C71.1417 109.032 71.2777 107.968 71.2777 106.64V102.968C71.2777 101.096 70.6937 100.16 69.5257 100.16C68.5497 100.16 67.4937 100.576 66.3577 101.408C66.3897 101.792 66.4057 102.088 66.4057 102.296ZM81.9822 110.264C80.3022 110.264 78.9902 109.744 78.0462 108.704C77.1022 107.664 76.6302 106.296 76.6302 104.6C76.6302 102.888 77.1582 101.392 78.2142 100.112C79.2702 98.832 80.5822 98.192 82.1502 98.192C85.0142 98.192 86.4462 99.96 86.4462 103.496L85.5582 104.36H79.1742C79.1742 105.704 79.4622 106.712 80.0382 107.384C80.6142 108.056 81.3902 108.392 82.3662 108.392C82.7502 108.392 83.2942 108.28 83.9982 108.056C84.7022 107.816 85.3262 107.536 85.8702 107.216L86.4702 108.128C86.1662 108.432 85.5022 108.864 84.4782 109.424C83.4702 109.984 82.6382 110.264 81.9822 110.264ZM81.7182 99.392C81.0462 99.392 80.5262 99.544 80.1582 99.848C79.8542 100.264 79.6142 100.792 79.4382 101.432C79.2622 102.072 79.1742 102.632 79.1742 103.112L84.0942 102.92C84.0942 100.568 83.3022 99.392 81.7182 99.392ZM96.2896 98.192C97.4416 98.192 98.3296 98.56 98.9536 99.296C99.5936 100.032 99.9136 101.088 99.9136 102.464V105.92C99.9136 107.44 100.154 108.744 100.634 109.832V110H97.2496V109.832C97.5216 109.032 97.6576 107.968 97.6576 106.64V102.968C97.6576 102.04 97.5136 101.344 97.2256 100.88C96.9536 100.4 96.3936 100.16 95.5456 100.16C94.6976 100.16 93.6096 100.568 92.2816 101.384V105.92C92.2816 107.472 92.5136 108.776 92.9776 109.832V110H89.6176V109.832C89.8896 109.032 90.0256 107.968 90.0256 106.64V102.56C90.0256 101.872 89.8816 101.2 89.5936 100.544C89.3216 99.872 89.0016 99.424 88.6336 99.2L88.6096 98.912L91.7536 98.168L91.8976 98.408C92.0256 99 92.1216 99.6 92.1856 100.208C92.7776 99.744 93.2336 99.4 93.5536 99.176C93.8896 98.952 94.3136 98.736 94.8256 98.528C95.3376 98.304 95.8256 98.192 96.2896 98.192ZM107.629 110.264C106.285 110.264 105.341 109.92 104.797 109.232C104.269 108.528 104.005 107.448 104.005 105.992V102.56C104.005 101.04 103.765 99.736 103.285 98.648V98.48H106.621V98.648C106.381 99.496 106.261 100.56 106.261 101.84V105.608C106.261 106.568 106.381 107.256 106.621 107.672C106.861 108.088 107.445 108.296 108.373 108.296C109.301 108.296 110.389 107.856 111.637 106.976V102.56C111.637 101.008 111.405 99.704 110.941 98.648V98.48H114.253V98.648C114.013 99.496 113.893 100.56 113.893 101.84V105.896C113.893 106.6 114.013 107.296 114.253 107.984C114.493 108.656 114.773 109.104 115.093 109.328L115.117 109.616L112.309 110.288C112.037 109.552 111.845 108.848 111.733 108.176C110.949 108.848 110.237 109.368 109.597 109.736C108.957 110.088 108.301 110.264 107.629 110.264Z" fill="#292C31"/>
</svg>
