<svg width="48" height="48" viewBox="0 0 48 48" fill="none" xmlns="http://www.w3.org/2000/svg">
<rect width="48" height="48" rx="24" fill="#2D4030"/>
<path d="M18.4819 15C17.3877 15 16.5 15.8862 16.5 16.9805C16.5 18.0747 17.387 18.9814 18.4805 18.9814C19.574 18.9814 20.4624 18.0747 20.4624 16.9805C20.4624 15.887 19.5762 15 18.4819 15ZM28.1514 20.25C26.4871 20.25 25.5349 21.1203 25.0781 21.9858H25.0298V20.4829H21.75V31.5H25.1675V26.0464C25.1675 24.6094 25.2759 23.2207 27.0542 23.2207C28.8069 23.2207 28.8325 24.8592 28.8325 26.1372V31.5H32.2456H32.25V25.4487C32.25 22.4877 31.6134 20.25 28.1514 20.25ZM16.7725 20.4829V31.5H20.1929V20.4829H16.7725Z" fill="white"/>
</svg>
